<svg xmlns="http://www.w3.org/2000/svg" width="20" height="19"><g fill="none" fill-rule="evenodd"><path fill="#214ea3" fill-rule="nonzero" d="M.455 19.011l1.342-4.795A9.092 9.092 0 0 1 .534 9.59C.536 4.487 4.779.337 9.992.337a9.503 9.503 0 0 1 6.69 2.714c1.785 1.749 2.768 4.074 2.767 6.546-.002 5.102-4.245 9.253-9.457 9.253h-.004a9.625 9.625 0 0 1-4.52-1.126L.455 19.011z"/><path fill="#FFF" d="M7.545 5.58c-.184-.4-.377-.407-.551-.414-.143-.006-.306-.006-.47-.006a.908.908 0 0 0-.652.3c-.224.24-.857.82-.857 1.998 0 1.179.878 2.318 1 2.478.122.16 1.693 2.656 4.181 3.616 2.068.798 2.489.64 2.938.6.448-.04 1.448-.58 1.652-1.14.204-.559.204-1.038.143-1.139-.062-.1-.225-.16-.47-.28-.244-.119-1.448-.699-1.672-.779-.225-.08-.388-.12-.551.12-.163.24-.632.78-.775.94-.143.16-.286.18-.53.06-.245-.12-1.034-.373-1.969-1.19-.727-.634-1.219-1.419-1.362-1.658-.142-.24-.015-.37.108-.49.11-.107.245-.279.367-.419.122-.14.163-.24.245-.4.081-.16.04-.3-.02-.419-.062-.12-.538-1.305-.755-1.778z"/></g></svg>