<svg xmlns="http://www.w3.org/2000/svg" width="46" height="54"><g fill="none"><path fill="#FFF" d="M40.95 42.807l-1.878-8.832-17.076 3.63-1.865-8.774 9.716-2.066-1.402-6.594-9.716 2.065-1.189-5.594c-.488-2.297 1.083-4.17 3.321-4.645 2.827-.601 6.086 1.415 6.086 1.415l4.235-8.162S25.549 1.338 18.6 2.815C10.299 4.58 5.335 11.051 6.937 18.588l1.252 5.888-2.533.539 1.402 6.595 2.533-.538 1.865 8.774-3.24.688 1.878 8.833 30.856-6.559z"/><path fill="#638BFC" d="M45.15 47.007l-1.878-8.832-17.076 3.63-1.865-8.774 9.716-2.066-1.402-6.594-9.716 2.065-1.189-5.594c-.488-2.297 1.083-4.17 3.321-4.645 2.827-.601 6.086 1.415 6.086 1.415l4.235-8.162S29.749 5.538 22.8 7.015C14.499 8.78 9.535 15.251 11.137 22.788l1.252 5.888-2.533.539 1.402 6.595 2.533-.538 1.865 8.774-3.24.688 1.878 8.833 30.856-6.559z" style="mix-blend-mode:multiply"/><path stroke="#3A3A3A" stroke-width="1.4" d="M43.75 45.608l-1.878-8.833-17.076 3.63-1.865-8.774 9.716-2.065-1.402-6.595-9.716 2.065-1.189-5.594c-.488-2.296 1.083-4.169 3.32-4.645 2.827-.6 6.087 1.415 6.087 1.415l4.235-8.163s-5.632-3.91-12.58-2.434C13.098 7.38 8.134 13.851 9.736 21.388l1.252 5.889-2.532.538 1.402 6.595 2.532-.538 1.865 8.773-3.24.689 1.878 8.832 30.856-6.558z"/></g></svg>