<svg width="63" height="10" xmlns="http://www.w3.org/2000/svg"><g fill="none"><path d="M42 .9h5.6v1.4h-4v1.6h3.7v1.3h-3.7V7h4.1v1.4H42V.9zM40.5 5c-.2.2-.5.4-.8.5-.3.1-.7.2-1.2.2h-1.7v2.7h-1.7V.9h3.4c.5 0 .9.1 1.2.2.3.1.6.3.8.5.2.2.4.5.5.8.1.3.1.6.1.9 0 .3 0 .6-.1.9-.1.3-.3.6-.5.8zm-1.1-2.2c-.1-.1-.2-.3-.3-.3-.1-.1-.3-.1-.5-.2h-1.8v2.3h1.8c.2 0 .3-.1.5-.2l.3-.3c.1-.1.1-.3.1-.6 0-.4 0-.6-.1-.7zM32 .9h1.7v7.5H32V.9zm-4.4 7.6l-1.3-5.1L25 8.5h-1.7l-2-7.5H23l1.2 5.1L25.5 1h1.6l1.3 5.2L29.6 1h1.6l-2 7.5h-1.6zm-10.4-5c.2.1.4.2.7.2.3.1.7.2 1.1.3.1 0 .3.1.6.2.2.1.5.2.7.4.2.2.5.4.6.6.2.3.3.6.3 1 0 .3-.1.7-.2 1-.1.3-.3.6-.6.8-.3.2-.6.4-1 .5-.4.1-.8.2-1.4.2-.4 0-.8-.1-1.2-.2-.4-.1-.7-.3-1-.5-.3-.2-.5-.5-.7-.8-.2-.3-.3-.7-.3-1.2h1.7c0 .3 0 .5.1.6.1.2.2.3.4.4.2.1.3.2.5.2.2.1.4.1.6.1h.5c.2 0 .3-.1.5-.1.1-.1.3-.2.4-.3.1-.1.1-.3.1-.5s-.1-.4-.2-.5c-.1-.1-.3-.2-.5-.3-.2-.1-.5-.2-.7-.2-.3-.1-.5-.1-.8-.2-.3-.1-.6-.2-.8-.3-.3-.1-.5-.2-.7-.4-.2-.2-.4-.4-.5-.6-.1-.2-.2-.5-.2-.9s.1-.7.2-1c.2-.3.4-.5.6-.7.3-.2.6-.3.9-.4.3-.1.7-.1 1-.1.4 0 .8 0 1.1.1.4.1.7.2 1 .4.3.2.5.4.7.8.2.3.2.7.2 1.1h-1.6c0-.2-.1-.4-.1-.6-.1-.1-.2-.3-.3-.3-.1-.1-.3-.1-.5-.2-.2 0-.4-.1-.6-.1h-.4c-.1 0-.3.1-.4.1l-.3.3c-.1.1-.1.2-.1.4 0 .1 0 .3.1.4.2.1.3.2.5.3z" fill="#666"/><path d="M8.9 5.8H3.7l1.4 1.5.4.4c.4.4.4 1.1 0 1.6-.4.4-1 .4-1.5 0l-3.8-4C.1 5.2 0 5 0 4.9c0-.2.1-.3.2-.4L4 .5C4.4.1 5.1.1 5.5.5c.4.4.4 1.1 0 1.6l-.4.4L3.7 4H9c.4 0 .7.2.7.5v.9c-.1.1-.4.4-.8.4zm53.4-.6c0 .1 0 .1 0 0l-3.8 4c-.4.4-1.1.4-1.5 0-.4-.4-.4-1.1 0-1.6l.4-.4 1.4-1.5h-5.3c-.4 0-.7-.2-.7-.5v-.9c0-.3.3-.5.7-.5h5.3l-1.4-1.5-.4-.4c-.4-.4-.4-1.1 0-1.6.4-.4 1-.4 1.5 0l3.8 4c.1.1.2.3.2.4 0 .3-.1.4-.2.5z" fill="#C2C2C2"/></g></svg>