<svg xmlns="http://www.w3.org/2000/svg" width="50" height="48"><g fill="none"><path fill="#FFF" d="M12.98 19.851c5.223.921 10.135-2.197 10.995-7.078.844-4.78-2.68-9.543-7.902-10.464C10.797 1.38 5.91 4.66 5.067 9.44c-.86 4.881 2.637 9.481 7.912 10.411zM9.317 38.5L44.435 7.31l-7.91-1.395-35.117 31.19 7.91 1.394zm4.102-24.6a2.985 2.985 0 0 1-2.434-3.472c.274-1.559 1.853-2.658 3.464-2.374s2.72 1.857 2.444 3.416a2.986 2.986 0 0 1-3.474 2.43zm18.507 29.792c5.224.921 10.136-2.197 10.997-7.078.843-4.78-2.68-9.542-7.903-10.463-5.276-.93-10.163 2.349-11.006 7.129-.86 4.88 2.637 9.482 7.912 10.412zm1.623-5.744a2.985 2.985 0 0 1-2.434-3.472c.274-1.559 1.853-2.659 3.464-2.374s2.72 1.857 2.444 3.416a2.986 2.986 0 0 1-3.475 2.431z"/><path fill="#638BFC" d="M13.98 21.851c5.223.921 10.135-2.197 10.995-7.078.844-4.78-2.68-9.543-7.902-10.464-5.276-.93-10.163 2.35-11.006 7.13-.86 4.881 2.637 9.481 7.912 10.411zM10.317 40.5L45.435 9.31l-7.91-1.395-35.117 31.19 7.91 1.394zm4.102-24.6a2.985 2.985 0 0 1-2.434-3.472c.274-1.559 1.853-2.658 3.464-2.374s2.72 1.857 2.444 3.416a2.986 2.986 0 0 1-3.474 2.43zm18.507 29.792c5.224.921 10.136-2.197 10.997-7.078.843-4.78-2.68-9.542-7.903-10.463-5.276-.93-10.163 2.349-11.006 7.129-.86 4.88 2.637 9.482 7.912 10.412zm1.623-5.744a2.985 2.985 0 0 1-2.434-3.472c.274-1.559 1.853-2.659 3.464-2.374s2.72 1.857 2.444 3.416a2.986 2.986 0 0 1-3.475 2.431z" style="mix-blend-mode:multiply"/><path stroke="#273157" d="M13.98 21.851c5.223.921 10.135-2.197 10.995-7.078.844-4.78-2.68-9.543-7.902-10.464-5.276-.93-10.163 2.35-11.006 7.13-.86 4.881 2.637 9.481 7.912 10.411zM10.317 40.5L45.435 9.31l-7.91-1.395-35.117 31.19 7.91 1.394zm4.102-24.6a2.985 2.985 0 0 1-2.434-3.472c.274-1.559 1.853-2.658 3.464-2.374s2.72 1.857 2.444 3.416a2.986 2.986 0 0 1-3.474 2.43zm18.507 29.792c5.224.921 10.136-2.197 10.997-7.078.843-4.78-2.68-9.542-7.903-10.463-5.276-.93-10.163 2.349-11.006 7.129-.86 4.88 2.637 9.482 7.912 10.412zm1.623-5.744a2.985 2.985 0 0 1-2.434-3.472c.274-1.559 1.853-2.659 3.464-2.374s2.72 1.857 2.444 3.416a2.986 2.986 0 0 1-3.475 2.431z"/></g></svg>