<svg xmlns="http://www.w3.org/2000/svg" width="21" height="17"><path fill="#214ea3" d="M20.685.32c-.84.535-1.785.856-2.73 1.07C17.22.535 16.065 0 14.805 0A4.274 4.274 0 0 0 10.5 4.277c0 .32 0 .641.105.962-3.57-.214-6.72-1.925-8.925-4.49-.42.64-.63 1.39-.63 2.138 0 1.497.735 2.78 1.89 3.635-.735 0-1.365-.214-1.995-.535v.107c0 2.139 1.47 3.85 3.465 4.277-.315.107-.735.107-1.155.107-.315 0-.525 0-.84-.107.525 1.71 2.1 2.994 3.99 2.994-1.47 1.176-3.36 1.817-5.355 1.817-.315 0-.735 0-1.05-.107C1.89 16.252 4.2 17 6.615 17 14.49 17 18.9 10.371 18.9 4.704V4.17c.84-.642 1.575-1.39 2.1-2.245-.735.32-1.575.534-2.52.641 1.155-.428 1.785-1.283 2.205-2.245z"/></svg>