<svg xmlns="http://www.w3.org/2000/svg" xmlns:xlink="http://www.w3.org/1999/xlink" width="20" height="20"><defs><path id="a" d="M.001.001H20v19.995H.001z"/></defs><g fill="none" fill-rule="evenodd"><mask id="b" fill="#fff"><use xlink:href="#a"/></mask><path fill="#214ea3" d="M10 0C4.477 0 0 4.504 0 10.059c0 5.02 3.657 9.182 8.438 9.937v-7.03h-2.54V10.06h2.54V7.843c0-2.521 1.492-3.914 3.777-3.914 1.094 0 2.238.197 2.238.197V6.6h-1.26c-1.243 0-1.63.776-1.63 1.571v1.887h2.773l-.443 2.908h-2.33v7.029C16.343 19.24 20 15.08 20 10.059 20 4.504 15.523 0 10 0z" mask="url(#b)"/><path fill="#FFFFFE" d="M13.862 12.638l.46-2.994h-2.881V7.701c0-.819.402-1.617 1.693-1.617h1.31V3.536s-1.189-.203-2.325-.203c-2.374 0-3.925 1.434-3.925 4.03v2.281H5.556v2.994h2.638v7.236a10.465 10.465 0 0 0 3.247 0v-7.236h2.421" mask="url(#b)"/></g></svg>