<svg xmlns="http://www.w3.org/2000/svg" width="14" height="15"><g fill="#214ea3"><path d="M13.067 2.459a1.999 1.999 0 1 1-3.998 0 1.999 1.999 0 0 1 3.998 0zm0 9.839a1.998 1.998 0 1 1-3.996 0 1.998 1.998 0 0 1 3.996 0zM2.46 9.838A2.462 2.462 0 0 1 0 7.378a2.462 2.462 0 0 1 2.46-2.459 2.463 2.463 0 0 1 2.46 2.46 2.463 2.463 0 0 1-2.46 2.46zm0-3.997A1.54 1.54 0 0 0 .922 7.379 1.539 1.539 0 1 0 2.46 5.841z"/><path d="M3.911 7.084a.616.616 0 0 1-.305-1.15l5.706-3.253a.615.615 0 1 1 .609 1.07L4.215 7.002a.607.607 0 0 1-.304.08zm5.705 5.072a.606.606 0 0 1-.303-.08L3.607 8.823a.615.615 0 0 1 .609-1.069l5.705 3.253a.615.615 0 0 1-.305 1.149z"/><path d="M11.068 4.92a2.463 2.463 0 0 1-2.46-2.46A2.463 2.463 0 0 1 11.068 0a2.462 2.462 0 0 1 2.46 2.46 2.463 2.463 0 0 1-2.46 2.46zm0-3.998c-.848 0-1.537.69-1.537 1.538 0 .847.69 1.537 1.537 1.537a1.539 1.539 0 0 0 0-3.075zm0 13.836a2.463 2.463 0 0 1-2.46-2.46 2.463 2.463 0 0 1 2.46-2.46 2.463 2.463 0 0 1 2.46 2.46 2.463 2.463 0 0 1-2.46 2.46zm0-3.997c-.848 0-1.537.69-1.537 1.537s.69 1.537 1.537 1.537c.848 0 1.537-.69 1.537-1.537s-.689-1.537-1.537-1.537zm-6.61-3.382a1.998 1.998 0 1 1-3.996 0 1.998 1.998 0 0 1 3.996 0z"/></g></svg>