<svg width="32" height="24" xmlns="http://www.w3.org/2000/svg"><path d="M1.8 10.623c1.1 1.18 2.3 1.77 3.6 1.77-.1 1.28-.7 2.558-1.6 3.738-.9 1.18-2.1 1.967-3.4 2.558L3.6 24c.9-.295 2-.885 3.3-1.475 1.3-.689 2.5-1.673 3.6-2.853 1.2-1.18 2.2-2.754 3-4.524.8-1.87 1.2-4.033 1.2-6.689 0-2.557-.7-4.623-2.1-6.098C11.2.787 9.3 0 6.8 0 4.9 0 3.2.59 1.9 1.77.6 2.95 0 4.426 0 6.295c.1 1.672.6 3.246 1.8 4.328zm17.2 0c1.1 1.18 2.3 1.77 3.7 1.77-.1 1.28-.7 2.558-1.6 3.738-.9 1.18-2.1 1.967-3.4 2.558L20.9 24c.9-.295 2-.885 3.3-1.475 1.3-.689 2.5-1.673 3.6-2.853 1.2-1.18 2.2-2.754 3-4.524.8-1.87 1.2-4.033 1.2-6.689 0-2.557-.7-4.623-2.1-6.098C28.5.787 26.6 0 24.1 0c-1.9 0-3.6.59-4.9 1.77-1.3 1.18-1.9 2.656-1.9 4.525.1 1.672.6 3.246 1.7 4.328z" fill="#F9C30A"/></svg>