<svg xmlns="http://www.w3.org/2000/svg" width="68" height="66"><g fill="none"><path fill="#FFF" d="M22.548 49.393l9.029-11.15 11.096 8.985 5.72-7.063-11.096-8.986 8.984-11.095-7.117-5.763-8.984 11.095-11.096-8.985-5.72 7.064 11.096 8.984-9.03 11.15z"/><path fill="#638BFC" style="mix-blend-mode:multiply" d="M25.456 49.265l9.028-11.15 11.097 8.986 5.719-7.063-11.096-8.985 8.985-11.096-7.117-5.764-8.985 11.096-11.096-8.985-5.72 7.063 11.096 8.985-9.028 11.15z"/><path stroke="#273157" stroke-width="1.2" d="M29.478 49.804l8.433-11.607 11.55 8.392 5.342-7.353-11.55-8.392 8.392-11.55-7.41-5.384-8.392 11.55-11.55-8.391-5.343 7.353 11.55 8.392-8.432 11.607z"/></g></svg>