<svg width="32" height="24" xmlns="http://www.w3.org/2000/svg"><path d="M30.3 13.377c-1.1-1.18-2.3-1.77-3.7-1.77.1-1.28.7-2.558 1.6-3.738.9-1.18 2.1-1.967 3.4-2.558L28.4 0c-.9.295-2 .885-3.3 1.475-1.3.689-2.5 1.673-3.6 2.853-1.2 1.18-2.2 2.754-3 4.524-.8 1.87-1.2 4.033-1.2 6.689 0 2.557.7 4.623 2.1 6.098C20.8 23.213 22.7 24 25.2 24c1.9 0 3.6-.59 4.9-1.77 1.3-1.18 1.9-2.656 1.9-4.525-.1-1.672-.6-3.246-1.7-4.328zm-17.3 0c-1.1-1.18-2.3-1.77-3.7-1.77.1-1.28.7-2.558 1.6-3.738.9-1.18 2.1-1.967 3.4-2.558L11.1 0c-.9.295-2 .885-3.3 1.475-1.3.689-2.5 1.673-3.6 2.853C3 5.508 2 7.082 1.2 8.852.4 10.722 0 12.885 0 15.541c0 2.557.7 4.623 2.1 6.098C3.5 23.213 5.4 24 7.9 24c1.9 0 3.6-.59 4.9-1.77 1.3-1.18 1.9-2.656 1.9-4.525-.1-1.672-.6-3.246-1.7-4.328z" fill="#F9C30A"/></svg>