<svg xmlns="http://www.w3.org/2000/svg" width="20" height="13"><path fill="#214ea3" d="M.669 1.307c.56.324 7.835 4.868 8.171 4.977.336.216.784.216 1.12.216.447 0 .895 0 1.119-.216.336-.109 7.611-4.653 8.171-4.977.672-.325 1.231-1.299.112-1.299H.557C-.45-.1.109.874.669 1.307zm18.827 2.545c-.668.327-8.021 4.792-8.355 5.01-.446.218-.78.218-1.114.218-.446 0-.669 0-1.114-.218-.446-.218-7.688-4.683-8.356-5.01C0 3.635 0 3.852 0 4.07v7.732C0 12.347.668 13 1.225 13h17.491c.557 0 1.226-.653 1.226-1.198V4.07c.111-.218.111-.544-.446-.218z"/></svg>