<svg xmlns="http://www.w3.org/2000/svg" width="121" height="93"><g fill="none" fill-rule="evenodd"><path fill="#FFF" d="M86.286.538c1.05-.251 2.113.42 2.375 1.5l17.656 62.492-88.908 23.75c-.7.168-6.403-21.518-17.112-65.059-.263-1.08.376-2.16 1.425-2.41L86.286.538z"/><path fill="#FC4B4D" d="M94.588 5.24c1.05-.25 2.112.42 2.375 1.5l17.656 62.493c.174.72-29.462 8.636-88.908 23.75-.7.167-6.403-21.519-17.112-65.06-.263-1.08.375-2.159 1.425-2.41L94.588 5.241z" style="mix-blend-mode:multiply"/><path fill="#FFF" d="M100.444 5.672L69.622 54.845 12.007 26.412z"/><path fill="#FC4B4D" style="mix-blend-mode:multiply" d="M95.413.889L64.593 50.06 6.975 21.627z"/><path stroke="#273157" stroke-width="2.484" d="M102.868 3.035L73.115 50.5 17.568 23.09a.827.827 0 01.177-1.549L101.978 1.79a.828.828 0 01.89 1.246z"/><path stroke="#273157" stroke-width="2.07" d="M99.017 2.266c1.05-.25 2.112.42 2.375 1.5l17.656 62.492c.174.72-29.462 8.637-88.908 23.75-.7.168-6.403-21.519-17.112-65.06-.263-1.08.376-2.159 1.425-2.41L99.017 2.266z"/></g></svg>