<svg xmlns="http://www.w3.org/2000/svg" width="38" height="31"><path fill="#FC4B4D" d="M.735.004a.647.647 0 0 0-.641.357.81.81 0 0 0 .023.798l3.49 5.305c.205.31.292.697.24 1.077l-1.231 10.85c-.143.41.403.948.625.585l3.44-7.226a2.613 2.613 0 0 1 1.3-1.014l23.036-5.104a.383.383 0 0 1 .363.122c.09.107.126.258.094.401a.414.414 0 0 1-.253.303l-21.782 7.7c-.492.218-.93.566-1.273 1.014l-4.17 5.352c-.238.56.001 1.015.566.767l4.61-1.512c.338-.142.716.043.852.415l3.53 10.348a.685.685 0 0 0 .477.442c.214.05.438-.02.596-.19L37.81 4.655a.798.798 0 0 0 .153-.764c-.084-.267-.297-.458-.55-.49L.736.003z"/></svg>