<?xml version="1.0" encoding="UTF-8"?>

<svg width="28px" height="33px" viewBox="0 0 28 33" version="1.1" xmlns="http://www.w3.org/2000/svg" xmlns:xlink="http://www.w3.org/1999/xlink">

    <!-- Generator: Sketch 63.1 (92452) - https://sketch.com -->

    <title>Group</title>

    <desc>Created with Sketch.</desc>

    <g id="Mobile-[NEW]" stroke="none" stroke-width="1" fill="none" fill-rule="evenodd">

        <g id="Group">

            <rect id="Rectangle" x="0" y="21" width="28" height="16"></rect>

            <g id="Group-2" transform="translate(0.500000, 0.000000)" fill="#273156">

                <g id="Menu-Icon" transform="translate(0.000000, -0.000000)">

                    <rect id="Rectangle-Copy-3" x="0" y="0" width="27" height="2.89285714" rx="1.44642857"></rect>

                    <rect id="Rectangle-Copy-4" x="0" y="7.71428571" width="27" height="2.89285714" rx="1.44642857"></rect>

                    <rect id="Rectangle-Copy-5" x="0" y="15.4285714" width="27" height="2.89285714" rx="1.44642857"></rect>

                </g>

                <path d="M1.57348633,32 L1.57311334,27.2414347 C1.57187003,27.0571764 1.56751845,26.8001845 1.56005859,26.470459 C1.55110677,26.0747884 1.54663086,25.7802734 1.54663086,25.5869141 L1.54663086,25.5869141 L1.54663086,25.3452148 L3.81323242,32 L4.87133789,32 L7.12182617,25.3452148 C7.12182617,25.7713216 7.11824544,26.1705729 7.11108398,26.5429688 C7.10392253,26.9153646 7.1003418,27.1821289 7.1003418,27.3432617 L7.1003418,32 L8.11547852,32 L8.11547852,24.1098633 L6.60083008,24.1098633 L4.3503418,30.7807617 L2.08374023,24.1098633 L0.552978516,24.1098633 L0.552978516,32 L1.57348633,32 Z M11.8591309,32.2041016 C12.1527507,32.2041016 12.4159342,32.1754557 12.6486816,32.1181641 C13.0819499,32.0179036 13.4453939,31.8245443 13.7390137,31.5380859 C13.9144694,31.3733724 14.0729167,31.1612142 14.2143555,30.9016113 C14.3557943,30.6420085 14.4390462,30.4065755 14.4641113,30.1953125 L14.4641113,30.1953125 L13.5134277,30.1953125 C13.4418132,30.4495443 13.3200684,30.6733398 13.1481934,30.8666992 C12.8474121,31.199707 12.4445801,31.3662109 11.9396973,31.3662109 C11.3990072,31.3662109 10.9997559,31.18986 10.7419434,30.8371582 C10.4841309,30.4844564 10.3462728,30.016276 10.3283691,29.4326172 L10.3283691,29.4326172 L14.5446777,29.4326172 C14.5446777,28.8525391 14.5160319,28.430013 14.4587402,28.1650391 C14.3942871,27.7783203 14.2653809,27.4399414 14.0720215,27.1499023 C13.8715007,26.8455404 13.5796712,26.5975749 13.1965332,26.4060059 C12.8133952,26.2144368 12.4177246,26.1186523 12.0095215,26.1186523 C11.2002767,26.1186523 10.5450033,26.406901 10.0437012,26.9833984 C9.54239909,27.5598958 9.29174805,28.3100586 9.29174805,29.2338867 C9.29174805,30.1720378 9.54060872,30.9016113 10.0383301,31.4226074 C10.5360514,31.9436035 11.142985,32.2041016 11.8591309,32.2041016 Z M13.5510254,28.6645508 L10.3552246,28.6645508 C10.3731283,28.1704102 10.5324707,27.7631022 10.833252,27.442627 C11.1340332,27.1221517 11.506429,26.9619141 11.9504395,26.9619141 C12.5699056,26.9619141 13.0121257,27.1946615 13.2770996,27.6601562 C13.4203288,27.9108073 13.5116374,28.2456055 13.5510254,28.6645508 L13.5510254,28.6645508 Z M16.6984863,32 L16.6984863,28.9868164 C16.6984863,28.6108398 16.7226562,28.321696 16.7709961,28.1193848 C16.8193359,27.9170736 16.9240723,27.7210286 17.0852051,27.53125 C17.2857259,27.2949219 17.5184733,27.1373698 17.7834473,27.0585938 C17.9302572,27.0120443 18.1182454,26.9887695 18.3474121,26.9887695 C18.798584,26.9887695 19.1101074,27.167806 19.2819824,27.5258789 C19.3858236,27.7407227 19.4377441,28.0236003 19.4377441,28.3745117 L19.4377441,28.3745117 L19.4377441,32 L20.4206543,32 L20.4206543,28.3100586 C20.4206543,27.7299805 20.3418783,27.2841797 20.1843262,26.9726562 C19.8978678,26.4033203 19.3464355,26.1186523 18.5300293,26.1186523 C18.1576335,26.1186523 17.8192546,26.1920573 17.5148926,26.3388672 C17.2105306,26.4856771 16.9222819,26.7273763 16.6501465,27.0639648 L16.6501465,27.0639648 L16.6501465,26.2475586 L15.7316895,26.2475586 L15.7316895,32 L16.6984863,32 Z M23.7453613,32.1557617 C24.2717285,32.1557617 24.7193197,32.0053711 25.0881348,31.7045898 C25.2743327,31.5541992 25.4300944,31.3697917 25.5554199,31.1513672 L25.5554199,31.1513672 L25.5446777,32 L26.4577637,32 L26.4577637,26.2475586 L25.4909668,26.2475586 L25.4909668,29.0727539 C25.4909668,29.6349284 25.4247233,30.0771484 25.2922363,30.3994141 C25.0487467,31.0009766 24.5904134,31.3017578 23.9172363,31.3017578 C23.4481608,31.3017578 23.1276855,31.1298828 22.9558105,30.7861328 C22.8627116,30.5999349 22.8161621,30.360026 22.8161621,30.0664062 L22.8161621,30.0664062 L22.8161621,26.2475586 L21.8278809,26.2475586 L21.8278809,30.1577148 C21.8278809,30.6482747 21.9084473,31.0403646 22.0695801,31.3339844 C22.3667806,31.8818359 22.9253743,32.1557617 23.7453613,32.1557617 Z" id="Menu" fill-rule="nonzero"></path>

            </g>

        </g>

    </g>

</svg>
