<?xml version="1.0" encoding="UTF-8"?>

<svg width="222px" height="21px" viewBox="0 0 222 21" version="1.1" xmlns="http://www.w3.org/2000/svg" xmlns:xlink="http://www.w3.org/1999/xlink">

    <!-- Generator: Sketch 63.1 (92452) - https://sketch.com -->

    <title>MoneySavingExpert</title>

    <desc>Created with Sketch.</desc>

    <g id="Symbols" stroke="none" stroke-width="1" fill="none" fill-rule="evenodd">

        <path d="M7.26,16 L7.26,13.844 L5.5,13.844 L6.072,5.968 C6.116,5.418 6.006,4.516 6.006,4.516 L6.094,4.516 C6.094,4.516 6.248,5.374 6.446,5.902 L9.438,13.096 L11.902,13.096 L14.894,5.902 C15.092,5.374 15.268,4.516 15.268,4.516 L15.334,4.516 C15.334,4.516 15.224,5.418 15.268,5.968 L15.84,13.844 L14.102,13.844 L14.102,16 L20.504,16 L20.504,13.844 L18.656,13.844 L17.754,2.558 L19.624,2.558 L19.624,0.38 L14.542,0.38 L11.088,9.202 C10.802,9.972 10.692,10.5 10.692,10.5 L10.648,10.5 C10.648,10.5 10.538,9.972 10.274,9.202 L6.798,0.38 L1.716,0.38 L1.716,2.558 L3.608,2.558 L2.684,13.844 L0.836,13.844 L0.836,16 L7.26,16 Z M28.05,16.264 C31.46,16.264 34.21,13.844 34.21,10.39 C34.21,6.958 31.46,4.516 28.028,4.516 C24.618,4.516 21.868,6.958 21.868,10.39 C21.868,13.844 24.618,16.264 28.05,16.264 Z M28.05,13.888 C26.224,13.888 24.706,12.48 24.706,10.39 C24.706,8.322 26.224,6.892 28.05,6.892 C29.854,6.892 31.372,8.322 31.372,10.39 C31.372,12.48 29.854,13.888 28.05,13.888 Z M41.998,16 L41.998,13.91 L40.392,13.91 L40.392,10.962 C40.392,9.004 41.58,7.068 43.604,7.068 C45.012,7.068 45.386,7.992 45.386,9.356 L45.386,16 L49.786,16 L49.786,13.91 L48.158,13.91 L48.158,8.784 C48.158,5.814 46.794,4.516 44.396,4.516 C41.58,4.516 40.392,6.672 40.26,7.024 L40.216,7.024 C40.216,7.024 40.26,6.782 40.26,6.54 L40.26,6.034 C40.26,5.242 39.798,4.78 38.808,4.78 L35.86,4.78 L35.86,6.87 L37.114,6.87 C37.422,6.87 37.598,7.046 37.598,7.354 L37.598,13.91 L35.97,13.91 L35.97,16 L41.998,16 Z M57.09,16.264 C59.906,16.264 61.622,14.702 61.622,14.702 L60.544,12.722 C60.544,12.722 59.114,13.91 57.288,13.91 C55.594,13.91 54.098,12.854 53.922,10.786 L61.688,10.786 C61.688,10.786 61.754,10.17 61.754,9.84 C61.754,6.87 59.994,4.516 56.76,4.516 C53.394,4.516 51.062,6.936 51.062,10.39 C51.062,13.58 53.372,16.264 57.09,16.264 Z M58.872,9.136 L53.988,9.136 C54.252,7.662 55.264,6.672 56.694,6.672 C57.882,6.672 58.828,7.596 58.872,9.136 Z M65.824,20.62 C67.738,20.62 69.41,19.674 70.268,17.452 L74.404,6.87 L75.68,6.87 L75.68,4.78 L70.378,4.78 L70.378,6.87 L71.676,6.87 L69.652,12.546 C69.432,13.096 69.344,13.712 69.344,13.712 L69.278,13.712 C69.278,13.712 69.234,13.096 69.036,12.546 L66.99,6.87 L68.31,6.87 L68.31,4.78 L62.788,4.78 L62.788,6.87 L64.13,6.87 L67.98,16.33 L67.672,17.034 C67.32,17.848 66.594,18.332 65.692,18.332 C64.658,18.332 63.998,17.804 63.998,17.804 L63.096,19.85 C63.096,19.85 64.196,20.62 65.824,20.62 Z M82.324,16.264 C85.272,16.264 87.956,14.79 87.956,11.6 C87.956,8.674 85.624,7.75 83.292,6.914 C81.664,6.298 80.212,5.792 80.212,4.362 C80.212,3.174 81.268,2.646 82.544,2.646 C83.71,2.646 84.876,3.064 84.876,3.856 L84.876,4.912 L87.494,4.912 L87.494,2.866 C87.494,1.062 85.008,0.116 82.544,0.116 C79.86,0.116 77.308,1.326 77.308,4.472 C77.308,7.266 79.354,8.212 81.444,9.004 C83.248,9.708 85.03,10.214 85.03,11.798 C85.03,13.052 83.908,13.734 82.324,13.734 C80.85,13.734 79.574,13.14 79.574,12.128 L79.574,10.962 L76.956,10.962 L76.956,12.744 C76.956,15.098 79.728,16.264 82.324,16.264 Z M93.324,16.264 C95.92,16.264 96.866,14.108 96.866,14.108 L96.91,14.108 C96.91,14.108 96.844,14.328 96.844,14.68 L96.844,14.812 C96.844,15.45 97.24,16 98.274,16 L100.914,16 L100.914,13.91 L99.902,13.91 C99.594,13.91 99.418,13.756 99.418,13.426 L99.418,8.938 C99.418,6.078 97.812,4.516 94.798,4.516 C92.092,4.516 90.354,5.902 90.354,5.902 L91.388,7.838 C91.388,7.838 92.884,6.76 94.556,6.76 C95.722,6.76 96.624,7.266 96.624,8.696 L96.624,9.07 L95.92,9.07 C94.116,9.07 89.606,9.422 89.606,12.854 C89.606,15.142 91.41,16.264 93.324,16.264 Z M94.05,14.174 C93.016,14.174 92.422,13.47 92.422,12.634 C92.422,10.94 95.084,10.764 96.184,10.764 L96.646,10.764 L96.646,11.138 C96.646,12.546 95.568,14.174 94.05,14.174 Z M109.34,16 L112.772,6.87 L114.114,6.87 L114.114,4.78 L108.724,4.78 L108.724,6.87 L110,6.87 L108.042,12.414 C107.844,12.986 107.778,13.646 107.778,13.646 L107.712,13.646 C107.712,13.646 107.646,12.986 107.426,12.414 L105.49,6.87 L106.744,6.87 L106.744,4.78 L101.354,4.78 L101.354,6.87 L102.718,6.87 L106.128,16 L109.34,16 Z M119.768,2.866 L119.768,0.38 L116.952,0.38 L116.952,2.866 L119.768,2.866 Z M121.374,16 L121.374,13.91 L119.768,13.91 L119.768,4.78 L115.236,4.78 L115.236,6.87 L116.974,6.87 L116.974,13.91 L115.346,13.91 L115.346,16 L121.374,16 Z M129.074,16 L129.074,13.91 L127.468,13.91 L127.468,10.962 C127.468,9.004 128.656,7.068 130.68,7.068 C132.088,7.068 132.462,7.992 132.462,9.356 L132.462,16 L136.862,16 L136.862,13.91 L135.234,13.91 L135.234,8.784 C135.234,5.814 133.87,4.516 131.472,4.516 C128.656,4.516 127.468,6.672 127.336,7.024 L127.292,7.024 C127.292,7.024 127.336,6.782 127.336,6.54 L127.336,6.034 C127.336,5.242 126.874,4.78 125.884,4.78 L122.936,4.78 L122.936,6.87 L124.19,6.87 C124.498,6.87 124.674,7.046 124.674,7.354 L124.674,13.91 L123.046,13.91 L123.046,16 L129.074,16 Z M143.22,20.62 C146.146,20.62 149.138,19.168 149.138,15.318 L149.138,7.31 C149.138,7.024 149.336,6.87 149.622,6.87 L150.7,6.87 L150.7,4.78 L147.906,4.78 C147.026,4.78 146.63,5.242 146.63,5.836 C146.63,6.056 146.674,6.21 146.674,6.21 L146.63,6.21 C146.014,5.022 144.496,4.516 143.154,4.516 C139.92,4.516 138.182,7.024 138.182,10.104 C138.182,13.184 139.986,15.78 143.22,15.78 C144.716,15.78 145.684,15.208 146.344,14.218 L146.388,14.218 C146.388,14.218 146.344,14.548 146.344,14.812 L146.344,15.516 C146.344,17.584 144.892,18.332 143.176,18.332 C141.46,18.332 140.074,17.584 140.074,17.584 L139.216,19.652 C140.316,20.224 141.812,20.62 143.22,20.62 Z M143.814,13.426 C142.01,13.426 140.998,11.974 140.998,10.016 C140.998,8.124 141.944,6.892 143.638,6.892 C145.134,6.892 146.41,7.574 146.41,10.126 C146.41,12.656 145.134,13.426 143.814,13.426 Z M164.076,16 L164.076,11.93 L161.612,11.93 L161.612,13.69 L156.904,13.69 L156.904,9.29 L162.052,9.29 L162.052,6.98 L156.904,6.98 L156.904,2.69 L161.282,2.69 L161.282,4.406 L163.746,4.406 L163.746,0.38 L152.152,0.38 L152.152,2.558 L154.022,2.558 L154.022,13.844 L152.152,13.844 L152.152,16 L164.076,16 Z M169.224,16 L171.16,12.876 C171.402,12.48 171.578,12.062 171.578,12.062 L171.622,12.062 C171.622,12.062 171.82,12.502 172.062,12.854 L174.042,16 L177.144,16 L177.144,13.91 L175.78,13.91 L173.228,10.214 L175.538,6.87 L177.1,6.87 L177.1,4.78 L173.888,4.78 L172.128,7.618 C171.886,7.992 171.688,8.41 171.688,8.41 L171.644,8.41 L171.625421,8.37132231 C171.571273,8.25945455 171.406,7.924 171.226,7.618 L169.488,4.78 L166.034,4.78 L166.034,6.87 L167.75,6.87 L170.06,10.28 L167.596,13.91 L165.99,13.91 L165.99,16 L169.224,16 Z M184.734,20.4 L184.734,18.31 L183.106,18.31 L183.106,15.648 C183.106,15.076 183.04,14.68 183.04,14.68 L183.084,14.68 C183.084,14.68 184.096,16.264 186.318,16.264 C189.266,16.264 191.444,13.954 191.444,10.39 C191.444,6.914 189.508,4.516 186.472,4.516 C183.832,4.516 182.864,6.408 182.864,6.408 L182.82,6.408 C182.82,6.408 182.842,6.166 182.842,5.902 L182.842,5.836 C182.842,5.264 182.49,4.78 181.456,4.78 L178.574,4.78 L178.574,6.87 L179.828,6.87 C180.136,6.87 180.312,7.046 180.312,7.354 L180.312,18.31 L178.684,18.31 L178.684,20.4 L184.734,20.4 Z M185.812,13.91 C183.986,13.91 183.018,12.194 183.018,10.456 C183.018,7.97 184.382,6.914 185.834,6.914 C187.484,6.914 188.628,8.3 188.628,10.434 C188.628,12.656 187.352,13.91 185.812,13.91 Z M199.034,16.264 C201.85,16.264 203.566,14.702 203.566,14.702 L202.488,12.722 C202.488,12.722 201.058,13.91 199.232,13.91 C197.538,13.91 196.042,12.854 195.866,10.786 L203.632,10.786 C203.632,10.786 203.698,10.17 203.698,9.84 C203.698,6.87 201.938,4.516 198.704,4.516 C195.338,4.516 193.006,6.936 193.006,10.39 C193.006,13.58 195.316,16.264 199.034,16.264 Z M200.816,9.136 L195.932,9.136 C196.196,7.662 197.208,6.672 198.638,6.672 C199.826,6.672 200.772,7.596 200.816,9.136 Z M211.552,16 L211.552,13.91 L209.946,13.91 L209.946,11.468 C209.946,9.356 210.958,7.376 213.224,7.376 C213.62,7.376 213.906,7.42 213.906,7.42 L213.906,4.67 C213.906,4.67 213.664,4.626 213.4,4.626 C211.684,4.626 210.342,5.902 209.836,7.508 L209.792,7.508 C209.792,7.508 209.836,7.222 209.836,6.804 L209.836,6.144 C209.836,5.198 209.33,4.78 208.34,4.78 L205.414,4.78 L205.414,6.87 L206.668,6.87 C206.976,6.87 207.152,7.046 207.152,7.354 L207.152,13.91 L205.524,13.91 L205.524,16 L211.552,16 Z M221.144,16.11 C221.65,16.11 222.002,16.044 222.002,16.044 L222.002,13.756 C222.002,13.756 221.804,13.778 221.496,13.778 C220.704,13.778 219.252,13.514 219.252,11.6 L219.252,6.87 L221.804,6.87 L221.804,4.78 L219.252,4.78 L219.252,1.722 L216.546,1.722 L216.546,4.78 L214.742,4.78 L214.742,6.87 L216.458,6.87 L216.458,11.886 C216.458,15.648 219.56,16.11 221.144,16.11 Z" id="MoneySavingExpert" fill="#D3222A" fill-rule="nonzero"></path>

    </g>

</svg>
