<svg width="62" height="62" xmlns="http://www.w3.org/2000/svg"><g fill="#FFF"><path d="M30.924 54.611c-3.424 0-6.874-.744-10.095-2.275C11.844 48.065 6.487 38.545 7.5 28.648 8.633 17.586 17.484 8.735 28.547 7.602c9.895-1.011 19.417 4.343 23.688 13.328 4.271 8.985 2.414 19.75-4.621 26.785-4.512 4.514-10.561 6.896-16.69 6.896zM28.599 8.099l.051.497C18.057 9.681 9.581 18.157 8.497 28.749c-.971 9.479 4.159 18.595 12.763 22.685 8.603 4.09 18.912 2.312 25.648-4.426 6.737-6.737 8.515-17.044 4.425-25.648-4.09-8.604-13.201-13.728-22.683-12.764l-.051-.497z" opacity=".35"/><path d="M30.949 61.981c-4.398 0-8.826-.931-12.968-2.848C6.234 53.695-.95 41.376.104 28.476 1.345 13.277 13.278 1.344 28.477.103 41.378-.95 53.698 6.232 59.134 17.98c5.436 11.746 2.939 25.787-6.213 34.94-5.925 5.926-13.899 9.061-21.972 9.061zM28.721 3.094A27.9 27.9 0 0 0 3.094 28.721C2.142 40.372 8.631 51.5 19.24 56.411c10.61 4.911 23.293 2.655 31.56-5.611 8.266-8.268 10.521-20.95 5.611-31.56C51.5 8.631 40.378 2.15 28.721 3.094z" opacity=".5"/><path d="M31.698 27.468a2.5 2.5 0 1 1 2.5 2.5 2.54 2.54 0 0 1-2.5-2.5m-4.5-.37l-4.1 1.1a.1.1 0 0 0-.1.1l-2.9 3.5a.354.354 0 0 0-.1.2v.1c0 .1.1.1.2.2l4.1 1.2a4.382 4.382 0 0 0 .6 2.3l-1.3 1.6a.19.19 0 0 0 0 .27l1.2 1.2a.354.354 0 0 0 .2.1c.1 0 .1 0 .2-.1l1.4-1.6a5.251 5.251 0 0 0 2.7.1l1.5 4c0 .1.1.1.2.2s.2 0 .2-.1l3.3-3.1.1-.1.7-4.1a34.392 34.392 0 0 0 2.7-2.7c5.2-5.8 5.9-10.3 5.9-12.5a5.017 5.017 0 0 0-.1-1.1.22.22 0 0 0-.2-.2c-.3 0-6.4-1-14.3 7-.804.703-1.51 1.51-2.1 2.4m-3.7 14.83c-1.1 1.1-3.6.6-3.6.6s-.6-2.5.5-3.6a4.599 4.599 0 0 1 2.1-1.3 3.151 3.151 0 0 0-2.9.9c-2.2 2.3-1.3 5.9-1.3 5.9s3.6.8 5.8-1.5a3.74 3.74 0 0 0 .8-3.1 5.6 5.6 0 0 1-1.4 2.1"/></g></svg>