<svg width="62" height="63" xmlns="http://www.w3.org/2000/svg"><g fill="#FFF"><path d="M30.924 55.411c-3.424 0-6.874-.744-10.095-2.275C11.844 48.865 6.487 39.345 7.5 29.448 8.633 18.386 17.484 9.535 28.547 8.402c9.895-1.008 19.417 4.344 23.688 13.328 4.271 8.986 2.414 19.75-4.622 26.785-4.511 4.513-10.56 6.896-16.689 6.896zM28.649 9.396C18.056 10.481 9.58 18.957 8.496 29.549c-.971 9.479 4.159 18.595 12.763 22.685 8.604 4.091 18.912 2.312 25.648-4.426 6.737-6.736 8.515-17.044 4.425-25.648C47.243 13.555 38.12 8.428 28.649 9.396z" opacity=".35"/><path d="M30.949 62.781c-4.398 0-8.826-.931-12.968-2.848C6.234 54.498-.95 42.178.103 29.276 1.344 14.077 13.277 2.144 28.476.903 41.382-.149 53.697 7.034 59.133 18.78c5.437 11.746 2.94 25.788-6.213 34.94-5.924 5.926-13.898 9.061-21.971 9.061zM28.721 3.894A27.9 27.9 0 0 0 3.094 29.521c-.952 11.652 5.537 22.78 16.146 27.69 10.61 4.911 23.292 2.655 31.56-5.611 8.267-8.267 10.522-20.949 5.611-31.56-4.91-10.608-16.03-17.094-27.69-16.146z" opacity=".5"/><path d="M35.398 37.698a1.72 1.72 0 0 1 1.6-1.6 1.58 1.58 0 0 1 1.6 1.56 1.6 1.6 0 1 1-3.2 0v.04zm-3.8.1a5.4 5.4 0 0 0 10.8 0 5.34 5.34 0 0 0-5.4-5.2 5.27 5.27 0 0 0-5.4 5.14v.06zm-7.3-10.3a1.58 1.58 0 0 1-1.6-1.56 1.64 1.64 0 0 1 1.6-1.6 1.6 1.6 0 1 1 0 3.2v-.04zm-4.3 15.1h4.6l16.6-21.4h-4.6l-16.6 21.4zm4.3-11.5a5.27 5.27 0 0 0 5.4-5.14v-.06a5.4 5.4 0 0 0-10.8 0 5.151 5.151 0 0 0 5.1 5.21l.3-.01z"/></g></svg>