<svg width="62" height="62" xmlns="http://www.w3.org/2000/svg"><g fill="#FFF"><path d="M30.999 54.7c-13.013 0-23.6-10.587-23.6-23.601 0-6.304 2.455-12.23 6.913-16.688C18.77 9.953 24.695 7.5 30.999 7.5c13.013 0 23.6 10.587 23.6 23.6 0 13.013-10.587 23.6-23.6 23.6zm0-46.2a22.451 22.451 0 0 0-15.98 6.619 22.452 22.452 0 0 0-6.62 15.98c0 12.462 10.138 22.601 22.6 22.601 12.462 0 22.6-10.139 22.6-22.601S43.46 8.5 30.999 8.5z" opacity=".35"/><path d="M30.999 62c-17.093 0-31-13.906-31-31-.002-8.282 3.221-16.067 9.077-21.923C14.929 3.224 22.71 0 30.987 0h.012c17.093 0 31 13.906 31 31s-13.907 31-31 31zm-.012-59c-7.476 0-14.503 2.911-19.791 8.198-5.289 5.288-8.2 12.32-8.198 19.802 0 15.439 12.561 28 28 28s28-12.561 28-28-12.561-28-28-28h-.011z" opacity=".5"/><path d="M30.998 30.5a5.76 5.76 0 0 1-5.7-5.7 5.633 5.633 0 0 1 5.56-5.7h.14a5.7 5.7 0 0 1 0 11.4zm0-16.5a10.521 10.521 0 0 0-10.5 10.54v.06c0 10.2 10.5 23.4 10.5 23.4s10.5-13.2 10.5-23.4c.012-5.82-4.68-10.556-10.5-10.6z"/></g></svg>