<svg id="Layer_2" xmlns="http://www.w3.org/2000/svg" viewBox="0 0 247.061 20"><style>.st0{fill:#d3222a}</style><path class="st0" d="M0 13.391h1.803l.901-11.009H.858V.258h4.957l3.391 8.605c.257.751.365 1.266.365 1.266h.043s.107-.515.386-1.266L13.369.258h4.957v2.124h-1.824l.88 11.009h1.802v2.103H12.94v-2.103h1.695l-.558-7.682c-.043-.537.064-1.416.064-1.416h-.064s-.172.837-.365 1.352l-2.919 7.017H8.391L5.472 5.644c-.193-.515-.343-1.352-.343-1.352h-.086s.107.88.064 1.416l-.558 7.682h1.717v2.103H0v-2.102zm25.453-9.099c3.348 0 6.03 2.382 6.03 5.73 0 3.369-2.682 5.729-6.009 5.729-3.348 0-6.03-2.36-6.03-5.729 0-3.348 2.682-5.73 6.009-5.73zm.021 9.141c1.76 0 3.24-1.373 3.24-3.412 0-2.017-1.481-3.412-3.24-3.412-1.781 0-3.262 1.395-3.262 3.412 0 2.039 1.481 3.412 3.262 3.412zm6.654.022h1.588V7.06c0-.3-.172-.472-.472-.472h-1.223V4.549h2.875c.966 0 1.416.451 1.416 1.223v.494c0 .236-.043.472-.043.472h.043c.129-.343 1.288-2.446 4.034-2.446 2.339 0 3.67 1.266 3.67 4.163v5h1.588v2.039h-4.292V9.013c0-1.33-.365-2.232-1.738-2.232-1.974 0-3.133 1.888-3.133 3.798v2.876h1.567v2.039h-5.88v-2.039zm19.207-9.163c3.154 0 4.871 2.296 4.871 5.193 0 .322-.064.923-.064.923h-7.575c.172 2.017 1.631 3.047 3.283 3.047 1.781 0 3.176-1.159 3.176-1.159l1.051 1.931s-1.674 1.523-4.421 1.523c-3.627 0-5.88-2.618-5.88-5.729.001-3.369 2.276-5.729 5.559-5.729zm2.06 4.506c-.043-1.502-.966-2.403-2.124-2.403-1.395 0-2.382.966-2.64 2.403h4.764z"/><path class="st0" d="M58.975 17.768c.88 0 1.588-.472 1.931-1.266l.301-.687-3.755-9.227h-1.309V4.549h5.386v2.039h-1.288l1.996 5.536a4.89 4.89 0 0 1 .236 1.137h.064s.086-.601.3-1.137l1.974-5.536h-1.266V4.549h5.172v2.039h-1.245L63.439 16.91c-.837 2.167-2.468 3.09-4.335 3.09-1.588 0-2.661-.751-2.661-.751l.88-1.996s.644.515 1.652.515zm12.469-7.189v1.137c0 .987 1.245 1.567 2.682 1.567 1.545 0 2.639-.665 2.639-1.888 0-1.545-1.738-2.039-3.498-2.725-2.039-.772-4.034-1.695-4.034-4.42.001-3.07 2.49-4.25 5.108-4.25 2.403 0 4.828.923 4.828 2.682v1.996h-2.554v-1.03c0-.772-1.137-1.18-2.275-1.18-1.244 0-2.275.515-2.275 1.674 0 1.395 1.416 1.888 3.004 2.489 2.275.815 4.549 1.717 4.549 4.571 0 3.112-2.618 4.549-5.494 4.549-2.532 0-5.236-1.137-5.236-3.433V10.58h2.556zm14.872-1.845h.687v-.365c0-1.395-.88-1.888-2.017-1.888-1.631 0-3.09 1.051-3.09 1.051l-1.009-1.888s1.695-1.352 4.335-1.352c2.94 0 4.506 1.523 4.506 4.313v4.378c0 .322.172.472.472.472h.987v2.039h-2.575c-1.009 0-1.395-.536-1.395-1.159v-.129c0-.343.064-.558.064-.558h-.043s-.923 2.103-3.455 2.103c-1.867 0-3.627-1.094-3.627-3.326.002-3.348 4.401-3.691 6.16-3.691zm-1.824 4.978c1.481 0 2.532-1.588 2.532-2.961v-.365h-.451c-1.073 0-3.67.172-3.67 1.824.002.816.581 1.502 1.589 1.502zm6.053-9.163h5.257v2.039H94.58l1.888 5.408c.215.558.279 1.202.279 1.202h.064s.064-.644.258-1.202l1.91-5.408h-1.245V4.549h5.257v2.039h-1.309l-3.348 8.905h-3.133l-3.326-8.905h-1.33V4.549zm12.576 8.906h1.588V6.588h-1.695V4.549h4.42v8.906h1.567v2.039h-5.88v-2.039zM104.688.258h2.747v2.425h-2.747V.258zm4.872 13.197h1.588V7.06c0-.3-.172-.472-.472-.472h-1.223V4.549h2.875c.966 0 1.416.451 1.416 1.223v.494c0 .236-.043.472-.043.472h.043c.129-.343 1.288-2.446 4.034-2.446 2.339 0 3.67 1.266 3.67 4.163v5h1.588v2.039h-4.292V9.013c0-1.33-.365-2.232-1.738-2.232-1.974 0-3.133 1.888-3.133 3.798v2.876h1.567v2.039h-5.88v-2.039zm18.563 4.313c1.674 0 3.09-.73 3.09-2.747v-.687c0-.257.043-.579.043-.579h-.043c-.644.966-1.588 1.524-3.047 1.524-3.154 0-4.914-2.532-4.914-5.536 0-3.004 1.695-5.451 4.85-5.451 1.309 0 2.79.493 3.391 1.652h.043s-.043-.15-.043-.365c0-.58.386-1.03 1.244-1.03h2.725v2.039h-1.051c-.279 0-.472.15-.472.429v7.811c0 3.755-2.918 5.172-5.773 5.172-1.373 0-2.833-.386-3.905-.944l.837-2.017c-.001 0 1.351.729 3.025.729zm3.155-8.004c0-2.489-1.244-3.154-2.704-3.154-1.652 0-2.575 1.202-2.575 3.047 0 1.91.987 3.326 2.747 3.326 1.287 0 2.532-.751 2.532-3.219zm4.529 3.627h1.824V2.382h-1.824V.258h11.309v3.927h-2.403V2.511h-4.27v4.184h5.022v2.253h-5.022v4.292h4.592v-1.717h2.403v3.97h-11.631v-2.102zm12.426.064h1.567l2.403-3.541-2.253-3.326h-1.674V4.549h3.369l1.695 2.768c.215.365.408.773.408.773h.043s.193-.408.429-.773l1.717-2.768h3.133v2.039h-1.524l-2.253 3.262 2.489 3.605h1.33v2.039h-3.026l-1.931-3.069c-.236-.343-.429-.773-.429-.773h-.043s-.172.408-.408.794l-1.888 3.047h-3.154v-2.038zm12.898 4.292V7.06c0-.3-.172-.472-.472-.472h-1.223V4.549h2.811c1.008 0 1.352.472 1.352 1.03v.064c0 .258-.021.493-.021.493h.043s.944-1.845 3.519-1.845c2.961 0 4.85 2.339 4.85 5.73 0 3.476-2.124 5.729-5 5.729-2.167 0-3.154-1.545-3.154-1.545h-.043s.064.386.064.944v2.596h1.588v2.039h-5.901v-2.039h1.587zm5.364-4.292c1.502 0 2.747-1.223 2.747-3.391 0-2.082-1.116-3.433-2.725-3.433-1.416 0-2.747 1.03-2.747 3.455 0 1.695.944 3.369 2.725 3.369zm11.504-9.163c3.154 0 4.871 2.296 4.871 5.193 0 .322-.064.923-.064.923h-7.575c.172 2.017 1.631 3.047 3.283 3.047 1.781 0 3.176-1.159 3.176-1.159l1.051 1.931s-1.674 1.523-4.421 1.523c-3.627 0-5.88-2.618-5.88-5.729.001-3.369 2.276-5.729 5.559-5.729zm2.06 4.506c-.043-1.502-.966-2.403-2.125-2.403-1.395 0-2.382.966-2.639 2.403h4.764zm3.52 4.657h1.588V7.06c0-.3-.172-.472-.472-.472h-1.223V4.549h2.854c.966 0 1.459.408 1.459 1.33v.644c0 .408-.043.687-.043.687h.043c.493-1.567 1.803-2.811 3.476-2.811.257 0 .494.043.494.043v2.682s-.279-.043-.665-.043c-2.21 0-3.197 1.931-3.197 3.991v2.382h1.566v2.039h-5.88v-2.038z"/><path class="st0" d="M193.173 6.588h-1.674V4.549h1.76V1.567h2.64V4.55h2.489v2.039h-2.489v4.614c0 1.867 1.416 2.124 2.189 2.124.301 0 .494-.021.494-.021v2.232s-.343.064-.837.064c-1.545 0-4.571-.451-4.571-4.12V6.588zm6.503 6.159h2.725v2.747h-2.725v-2.747zm9.764-8.455c1.824 0 4.485.687 4.485 2.618v1.502h-2.36v-.73c0-.73-1.116-1.073-2.038-1.073-1.996 0-3.219 1.373-3.219 3.369 0 2.253 1.566 3.477 3.434 3.477 1.545 0 2.811-.859 3.412-1.33l.966 1.931c-.751.708-2.447 1.695-4.528 1.695-3.198 0-6.03-2.167-6.03-5.708-.002-3.262 2.509-5.751 5.878-5.751zm11.031 0c3.348 0 6.03 2.382 6.03 5.73 0 3.369-2.682 5.729-6.008 5.729-3.348 0-6.03-2.36-6.03-5.729 0-3.348 2.682-5.73 6.008-5.73zm.022 9.141c1.759 0 3.24-1.373 3.24-3.412 0-2.017-1.481-3.412-3.24-3.412-1.781 0-3.262 1.395-3.262 3.412 0 2.039 1.481 3.412 3.262 3.412zm6.653.022h1.588V7.039c0-.301-.172-.451-.472-.451h-1.223V4.549h2.854c.966 0 1.438.451 1.438 1.223v.494c0 .236-.043.472-.043.472h.043c.558-1.116 1.931-2.446 3.734-2.446 1.524 0 2.618.708 3.047 2.382h.043c.601-1.288 2.06-2.382 3.799-2.382 2.21 0 3.519 1.288 3.519 4.163v5h1.588v2.039h-4.313V8.97c0-1.244-.236-2.189-1.502-2.189-1.867 0-2.79 1.867-2.79 3.884v2.79h1.588v2.039h-4.292V8.97c0-1.18-.193-2.189-1.481-2.189-1.931 0-2.811 2.039-2.811 4.013v2.661h1.566v2.039h-5.88v-2.039z"/></svg>