<svg width="63" height="62" xmlns="http://www.w3.org/2000/svg"><g fill="#FFF"><path d="M31.55 54.7c-13.013 0-23.6-10.587-23.6-23.601 0-6.304 2.455-12.23 6.912-16.688C19.319 9.953 25.246 7.5 31.55 7.5c13.013 0 23.6 10.587 23.6 23.6-.001 13.013-10.588 23.6-23.6 23.6zm0-46.2a22.455 22.455 0 0 0-15.981 6.619A22.45 22.45 0 0 0 8.95 31.1c0 12.462 10.138 22.601 22.6 22.601 12.461 0 22.6-10.139 22.6-22.601S44.011 8.5 31.55 8.5z" opacity=".35"/><path d="M31.55 62c-17.093 0-31-13.906-31-31-.003-8.277 3.218-16.061 9.069-21.916C15.47 3.23 23.251.003 31.529 0h.021c17.093 0 31 13.906 31 31s-13.907 31-31 31zm-.02-59c-7.476.003-14.504 2.917-19.789 8.205-5.285 5.288-8.194 12.318-8.191 19.794C3.55 46.44 16.11 59 31.55 59s28-12.561 28-28-12.561-28-28-28h-.02z" opacity=".5"/><path d="M22.85 25.9v-5.2h17.5v5.2h-17.5zm14 13.7a1.76 1.76 0 1 1-2.2 1.7 2 2 0 0 1 2.2-1.7zm-2.2-8.6c0-1 1-1.7 2.2-1.7a2 2 0 0 1 2.2 1.7c0 1-1 1.7-2.2 1.7-1.2 0-2.2-.7-2.2-1.7zm2.2 3.5a2 2 0 0 1 2.2 1.7c0 1-1 1.7-2.2 1.7a2 2 0 0 1-2.2-1.7c0-1 1-1.7 2.2-1.7zm-5.3 5.1a1.76 1.76 0 1 1-2.2 1.7 2 2 0 0 1 2.2-1.7zm-2.1-8.6c0-1 1-1.7 2.2-1.7a2 2 0 0 1 2.2 1.7c0 1-1 1.7-2.2 1.7-1.2 0-2.2-.7-2.2-1.7zm2.1 3.5a2 2 0 0 1 2.2 1.7c0 1-1 1.7-2.2 1.7a1.758 1.758 0 0 1-1.897-2.709 1.757 1.757 0 0 1 1.897-.691zm-5.2 5.1a1.76 1.76 0 1 1-2.2 1.7 2 2 0 0 1 2.2-1.7zm-2.2-8.6c0-1 1-1.7 2.2-1.7a2 2 0 0 1 2.2 1.7c0 1-1 1.7-2.2 1.7-1.2 0-2.2-.7-2.2-1.7zm2.2 3.5a2 2 0 0 1 2.2 1.7c0 1-1 1.7-2.2 1.7a2 2 0 0 1-2.2-1.7c0-1 1-1.7 2.2-1.7zm13.3-19h-16.1a2.43 2.43 0 0 0-2.4 2.4v26.2a2.43 2.43 0 0 0 2.4 2.4h16.1a2.43 2.43 0 0 0 2.4-2.4V17.9a2.43 2.43 0 0 0-2.4-2.4z"/></g></svg>