<svg width="62" height="62" xmlns="http://www.w3.org/2000/svg"><g fill="#FFF"><path d="M30.924 54.611c-3.424 0-6.874-.744-10.095-2.275-8.985-4.271-14.341-13.791-13.328-23.688C8.634 17.585 17.485 8.734 28.548 7.602c9.895-1.011 19.417 4.343 23.688 13.328 4.271 8.985 2.414 19.75-4.622 26.785-4.512 4.514-10.561 6.896-16.69 6.896zM28.649 8.596C18.057 9.681 9.581 18.156 8.496 28.749c-.971 9.479 4.159 18.595 12.763 22.685s18.912 2.312 25.648-4.426c6.737-6.737 8.516-17.044 4.425-25.648S38.12 7.627 28.649 8.596z" opacity=".35"/><path d="M30.949 61.981c-4.398 0-8.826-.931-12.968-2.848C6.234 53.696-.95 41.377.103 28.477 1.345 13.277 13.277 1.345 28.477.104 41.375-.949 53.698 6.233 59.134 17.981c5.436 11.746 2.939 25.787-6.213 34.94-5.925 5.925-13.899 9.06-21.972 9.06zM28.721 3.094A27.9 27.9 0 0 0 3.094 28.721C2.142 40.372 8.63 51.5 19.24 56.411c10.611 4.911 23.293 2.655 31.56-5.611 8.266-8.268 10.521-20.95 5.611-31.56C51.5 8.631 40.378 2.15 28.721 3.094z" opacity=".5"/><path d="M36.798 23.799a16.034 16.034 0 0 0-3.9-.5 17.324 17.324 0 0 0-3.9.5v-1.9a16.028 16.028 0 0 1 3.9-.5c1.315.019 2.623.186 3.9.5v1.9zm-11 7.599a2.392 2.392 0 0 1-2.301-4.001 2.39 2.39 0 0 1 4 2.3 2.444 2.444 0 0 1-1.699 1.701zm7.1-11.9a14.611 14.611 0 0 0-6 1.2 6.686 6.686 0 0 0-1.8-2 8.888 8.888 0 0 0-1.9-1.1v5.4a11.628 11.628 0 0 0-3.2 4.4 14.983 14.983 0 0 0-3.3.6c-1.1.4-1.6.9-1 1.8-.1 1.8-.1 3.1-.2 4.9-.2.4.1.9.7 1.4a28.295 28.295 0 0 0 7 3.6v3a1.9 1.9 0 0 0 1.9 1.9h1.9a1.9 1.9 0 0 0 1.9-1.9v-.5c1.274.326 2.584.494 3.9.5a17.382 17.382 0 0 0 3.9-.5v.5a1.9 1.9 0 0 0 1.9 1.9h1.9a1.9 1.9 0 0 0 1.9-1.9v-3.5a10.7 10.7 0 0 0 3.9-8.1c.2-6.5-5.9-11.6-13.4-11.6z"/></g></svg>