<svg width="62" height="63" xmlns="http://www.w3.org/2000/svg"><g fill="#FFF"><path d="M30.923 55.411c-3.424 0-6.874-.744-10.095-2.275-8.985-4.271-14.342-13.791-13.329-23.688C8.632 18.386 17.483 9.535 28.546 8.402c9.897-1.008 19.417 4.344 23.688 13.328 4.271 8.986 2.414 19.75-4.621 26.785a23.6 23.6 0 0 1-16.69 6.896zM28.648 9.396C18.055 10.481 9.579 18.957 8.495 29.549c-.971 9.479 4.159 18.595 12.763 22.685 8.604 4.091 18.913 2.312 25.648-4.426 6.736-6.736 8.515-17.044 4.425-25.648-4.09-8.604-13.202-13.726-22.683-12.764z" opacity=".35"/><path d="M30.947 62.781c-4.398 0-8.826-.931-12.968-2.848C6.232 54.497-.952 42.177.102 29.276 1.343 14.077 13.276 2.144 28.475.903 41.38-.149 53.696 7.034 59.132 18.78c5.437 11.746 2.94 25.788-6.213 34.94-5.925 5.926-13.899 9.061-21.972 9.061zM28.719 3.894A27.9 27.9 0 0 0 3.092 29.521c-.952 11.652 5.537 22.78 16.146 27.69 10.61 4.911 23.292 2.655 31.56-5.611 8.267-8.267 10.522-20.949 5.611-31.56-4.91-10.608-16.034-17.094-27.69-16.146z" opacity=".5"/><path d="M27.897 24.798a1.74 1.74 0 0 0-.8 1.2c.3-.4.7-.6.8-1.2zm-.4 5.1a25.371 25.371 0 0 1 1.7 4.6 50.504 50.504 0 0 1 1.1 5.6.27.27 0 0 0 .24.3h1c.3 0 .4 0 .4-.3.1-.9.1-1.8.2-2.7a23.86 23.86 0 0 1 1.9-7.3 3.42 3.42 0 0 1-2-.1 1.999 1.999 0 0 1-1-1.7 7.063 7.063 0 0 1-3.5 1.6h-.04zm3.4-14a3.107 3.107 0 0 0-.9.1 8.33 8.33 0 0 0-6.8 11.7c.7 1.5 1.5 2.9 2.1 4.3.807 1.75 1.378 3.6 1.7 5.5.1.7.1 1.4.2 2 .1.6.2.7.8.7h.6c.3 0 .3-.1.3-.3a6.57 6.57 0 0 1-.1-1.4 27.28 27.28 0 0 0-2.9-9.3 1.804 1.804 0 0 1-.4-.9 5.12 5.12 0 0 1 1-4.1 2.382 2.382 0 0 1 1.3-.9 1.148 1.148 0 0 1 1.49.66 1.54 1.54 0 0 1-.3 1.7 6.993 6.993 0 0 1-2 1.8c-.3.2-.3.4 0 .6.117.08.259.115.4.1.64.05 1.277-.127 1.8-.5a6.64 6.64 0 0 0 2.8-2.7 2.998 2.998 0 0 1 1.4-1.3 1.18 1.18 0 0 1 1-.1 1.9 1.9 0 0 1 .7 2.3.57.57 0 0 1-1 .1 1.423 1.423 0 0 1-.2-.6c-.1-.3-.2-.3-.3-.1a4.447 4.447 0 0 0-1 2.2c-.1.7.2 1 1 .9a4.784 4.784 0 0 0 2.3-1c.227-.223.5-.394.8-.5a.879.879 0 0 1 .7.1c.2.2.1.4 0 .6-.124.114-.225.25-.3.4-.3.4-.8.6-1.1 1a12.34 12.34 0 0 0-1.4 2.5 25.014 25.014 0 0 0-1.4 7.7c0 .3-.2.7.1.9.3.2.6 0 .9.1.5 0 .6-.1.7-.6a1.09 1.09 0 0 1 .1-.5c.051-.905.151-1.806.3-2.7a32.027 32.027 0 0 1 3.2-7.9 8.36 8.36 0 0 0-7.6-12.6l.01.04zm2.3 31.9a4.244 4.244 0 0 1-3.1.7 3.694 3.694 0 0 1-1.4-.7 2.644 2.644 0 0 1-.5-.6c-.1-.3-.3-.3-.5-.3a1 1 0 0 1-1-.6.91.91 0 0 1 .2-1.1.19.19 0 0 0 0-.27 1 1 0 0 1 0-1.4c.1-.1.1-.1 0-.2a1.06 1.06 0 0 1-.2-1.3c0-.1.1-.1.1-.2.114-.124.25-.225.4-.3-.2-.1-.3-.1-.5-.2a2.374 2.374 0 0 1-.9-1.5 6.635 6.635 0 0 1-.1-1.4 19.362 19.362 0 0 0-2-6.5 14.25 14.25 0 0 0-.8-1.8 10.934 10.934 0 0 1-1.8-5.6v-1.1a9.348 9.348 0 0 1 1.9-5 10.09 10.09 0 0 1 17.9 3.8c.1.4.1.8.2 1.2v1.3a10.327 10.327 0 0 1-1.4 4.6c-.5 1-1 1.9-1.4 2.9a6.12 6.12 0 0 0-.5 1.2c-.1 0-.1 0-.1.1a24.759 24.759 0 0 0-1 2.9c-.2 1-.3 2-.4 2.9a2.431 2.431 0 0 1-.9 1.8 1.419 1.419 0 0 1-.6.2c.2.1.3.2.5.3l.1.1c.243.427.16.965-.2 1.3-.1.1 0 .1 0 .2.5.7.4 1-.1 1.5.1.2.3.3.3.5a1 1 0 0 1-1.1 1.3c-.1 0-.4-.1-.4 0-.035.514-.29.988-.7 1.3v-.03z"/></g></svg>