<svg width="63" height="63" xmlns="http://www.w3.org/2000/svg"><g fill="#FFF"><path d="M31.473 55.411c-3.425 0-6.874-.744-10.095-2.275-8.985-4.271-14.342-13.791-13.329-23.688C9.182 18.386 18.033 9.535 29.096 8.402c9.898-1.008 19.417 4.344 23.688 13.328 4.271 8.985 2.414 19.75-4.621 26.785a23.599 23.599 0 0 1-16.69 6.896zM29.198 9.396c-10.593 1.085-19.069 9.561-20.153 20.153-.97 9.479 4.159 18.594 12.763 22.685 8.604 4.091 18.912 2.312 25.649-4.426 6.736-6.737 8.515-17.044 4.425-25.648-4.09-8.604-13.201-13.727-22.684-12.764z" opacity=".35"/><path d="M31.498 62.781c-4.398 0-8.826-.931-12.968-2.848C6.783 54.497-.401 42.177.653 29.276 1.895 14.077 13.827 2.144 29.026.903 41.931-.149 54.247 7.034 59.683 18.78c5.437 11.746 2.94 25.788-6.213 34.94-5.926 5.926-13.899 9.061-21.972 9.061zM29.27 3.894A27.9 27.9 0 0 0 3.643 29.521c-.952 11.652 5.537 22.78 16.146 27.69 10.609 4.911 23.292 2.655 31.56-5.611 8.267-8.267 10.522-20.949 5.611-31.56C52.05 9.432 40.931 2.946 29.27 3.894z" opacity=".5"/><path d="M28.047 34.898l16-4.6a.858.858 0 0 0 .6-.7v-7.9h-20.3v-2.3a.65.65 0 0 0-.6-.6h-4.6a.65.65 0 0 0-.6.6v2.3h2.9l2.8 12.9.1 1.4v2.4a.65.65 0 0 0 .6.6h19.1a.65.65 0 0 0 .6-.6v-2.2h-16.3c-1.7-.1-1.7-.9-.3-1.3zm-5.2 7a2.9 2.9 0 1 0 5.799.001 2.9 2.9 0 0 0-5.799-.001zm14.5 0a2.9 2.9 0 1 0 5.799.001 2.9 2.9 0 0 0-5.799-.001z"/></g></svg>