<svg width="62" height="63" xmlns="http://www.w3.org/2000/svg"><g fill="#FFF"><path d="M30.924 55.411c-3.424 0-6.874-.744-10.095-2.275C11.844 48.865 6.487 39.345 7.5 29.448 8.633 18.386 17.484 9.535 28.547 8.402c9.895-1.008 19.417 4.344 23.688 13.328 4.271 8.986 2.414 19.75-4.621 26.785-4.512 4.513-10.561 6.896-16.69 6.896zM28.599 8.898l.051.497C18.057 10.48 9.581 18.956 8.497 29.548c-.971 9.479 4.159 18.595 12.763 22.685 8.603 4.091 18.912 2.312 25.648-4.426 6.736-6.736 8.515-17.044 4.425-25.648-4.09-8.604-13.201-13.726-22.683-12.764l-.051-.497z" opacity=".35"/><path d="M30.949 62.781c-4.398 0-8.826-.931-12.968-2.848C6.234 54.497-.95 42.177.104 29.276 1.345 14.077 13.278 2.144 28.477.903 41.388-.149 53.699 7.034 59.134 18.78c5.437 11.746 2.94 25.788-6.213 34.94-5.925 5.926-13.899 9.061-21.972 9.061zM28.721 3.894A27.9 27.9 0 0 0 3.094 29.521c-.952 11.652 5.537 22.78 16.146 27.69 10.61 4.911 23.292 2.655 31.56-5.611 8.267-8.267 10.522-20.949 5.611-31.56-4.91-10.608-16.035-17.094-27.69-16.146z" opacity=".5"/><path d="M33.598 44.098h-.2a.37.37 0 0 0-.3.1c-.7 0-1-1-1-1.5a9.584 9.584 0 0 1 .7-2.3c1.1-2.5 4.9-4.2 2.2-6.4s-7.2.2-8.1-1.8c-1.2-2.7 1.5-3.9 2.5-3 1 .9 1.4 1.5 1.9 1.3.7-.2.1-1 0-1.9-.2-1.6.2-1.9 2.2-3.2a2 2 0 0 0 .6-3.2 3 3 0 0 0-3.2-.3c-1.5.6-2.2-.1-2.5-1.1v-.4a1.17 1.17 0 0 1 1.1-1.1 7.534 7.534 0 0 1 1.5-.1 12.69 12.69 0 0 1 11.7 7.9 2.76 2.76 0 0 1-2.16 3.25h-.34c-2.2.4-1.6 2.2.3 3.1 1.9.9 2.4 2.4 2 3.5a12.6 12.6 0 0 1-8.9 7.1v.05zm-15.2-12.3a12.6 12.6 0 0 1 7.4-11.5c.5-.2 1.1-.1.9.5-1 2-4 2.1-4.2 5.4-.1 1.8.4 3.8 2.7 6.3 1.2 1.3.5 3.3 1.5 6.6.452 1.5 1.2 2.894 2.2 4.1.5.6.4 1.2-.4 1.1h-.1a13 13 0 0 1-10-12.5zm12.6-15.5c-8.523.028-15.414 6.952-15.4 15.475.014 8.523 6.927 15.425 15.45 15.425s15.436-6.902 15.45-15.425c.014-8.523-6.877-15.447-15.4-15.475h-.1z"/></g></svg>