<svg xmlns="http://www.w3.org/2000/svg" width="30" height="30"><defs><filter x="-1.8%" y="-5%" width="103.5%" height="119%" filterUnits="objectBoundingBox" id="a"><feColorMatrix values="0 0 0 0 0 0 0 0 0 0 0 0 0 0 0 0 0 0 0.5 0" result="shadowMatrixOuter1"/><feMerge><feMergeNode in="shadowMatrixOuter1"/><feMergeNode in="SourceGraphic"/></feMerge></filter></defs><path d="M699.349 14.744a6.613 6.613 0 00-6.605 6.605c0 3.64 2.963 6.601 6.605 6.601 3.642 0 6.605-2.961 6.605-6.601a6.613 6.613 0 00-6.605-6.605M710.631 34c-.35 0-.701-.134-.968-.402l-4.745-4.739a9.364 9.364 0 01-5.569 1.839c-5.155 0-9.349-4.194-9.349-9.349S694.194 12 699.349 12s9.349 4.194 9.349 9.349a9.366 9.366 0 01-1.844 5.573l4.744 4.744c.259.257.402.6.402.967A1.366 1.366 0 01710.631 34" transform="translate(-686 -10)" filter="url(#a)" fill="#FFF" fill-rule="evenodd"/></svg>