<svg width="18" height="18" xmlns="http://www.w3.org/2000/svg"><path d="M7.65 2.245a5.41 5.41 0 00-5.405 5.404 5.409 5.409 0 005.404 5.401 5.409 5.409 0 005.404-5.4A5.41 5.41 0 007.65 2.244M16.88 18c-.287 0-.574-.11-.792-.329l-3.882-3.877a7.661 7.661 0 01-4.557 1.504C3.431 15.298 0 11.868 0 7.65 0 3.431 3.431 0 7.65 0c4.217 0 7.648 3.431 7.648 7.65a7.663 7.663 0 01-1.508 4.559l3.881 3.881c.212.211.329.491.329.791a1.1 1.1 0 01-.33.792 1.116 1.116 0 01-.79.327" fill="#273156" fill-rule="evenodd"/></svg>