<?xml version="1.0" encoding="UTF-8"?>

<svg width="405px" height="60px" viewBox="0 0 405 60" version="1.1" xmlns="http://www.w3.org/2000/svg" xmlns:xlink="http://www.w3.org/1999/xlink">

    <!-- Generator: Sketch 63.1 (92452) - https://sketch.com -->

    <title>Group</title>

    <desc>Created with Sketch.</desc>

    <g id="Symbols" stroke="none" stroke-width="1" fill="none" fill-rule="evenodd">

        <g id="Group" transform="translate(0.520000, 0.120000)" fill-rule="nonzero">

            <path d="M7.28,55.12 C9.22,55.12 12.64,54.38 12.64,52.34 L12.64,50.84 L11.3,50.84 L11.3,51.94 C11.3,53.42 8.46,53.86 7.32,53.86 C3.98,53.86 1.52,51.22 1.52,47.72 C1.52,44.32 3.98,41.84 7.24,41.84 C8.68,41.84 11.08,42.38 11.08,43.76 L11.08,44.88 L12.42,44.88 L12.42,43.38 C12.42,41.22 8.88,40.58 7.18,40.58 C3.16,40.58 0.06,43.66 0.06,47.76 C0.06,51.84 3.08,55.12 7.28,55.12 Z M19.26,55.12 C21.74,55.12 22.98,53.3 23.24,52.54 L23.28,52.54 C23.28,52.54 23.2641975,52.7928395 23.2606859,53.1299588 L23.26,53.76 C23.26,54.52 23.62,54.88 24.46,54.88 L26.16,54.88 L26.16,53.78 L25.02,53.78 C24.74,53.78 24.58,53.64 24.58,53.34 L24.58,44.82 L21.42,44.82 L21.42,45.94 L23.22,45.94 L23.22,49.6 C23.22,51.78 21.78,53.86 19.52,53.86 C17.6253333,53.86 17.3379111,52.5517778 17.3208548,51.0373548 L17.32,44.82 L14.16,44.82 L14.16,45.94 L15.96,45.94 L15.96,51.22 C15.96,53.84 16.94,55.12 19.26,55.12 Z M32.42,54.96 C32.76,54.96 33,54.92 33,54.92 L33,53.74 C33,53.74 32.82,53.78 32.54,53.78 C31.76,53.78 30.26,53.46 30.26,51.1 L30.26,45.94 L32.8,45.94 L32.8,44.82 L30.26,44.82 L30.26,42.04 L28.92,42.04 L28.92,44.82 L27.1,44.82 L27.1,45.94 L28.9,45.94 L28.9,51.22 C28.9,54.58 31.26,54.96 32.42,54.96 Z M39.2,54.96 C39.54,54.96 39.78,54.92 39.78,54.92 L39.78,53.74 C39.78,53.74 39.6,53.78 39.32,53.78 C38.54,53.78 37.04,53.46 37.04,51.1 L37.04,45.94 L39.58,45.94 L39.58,44.82 L37.04,44.82 L37.04,42.04 L35.7,42.04 L35.7,44.82 L33.88,44.82 L33.88,45.94 L35.68,45.94 L35.68,51.22 C35.68,54.58 38.04,54.96 39.2,54.96 Z M44.38,42.52 L44.38,40.82 L42.84,40.82 L42.84,42.52 L44.38,42.52 Z M45.98,54.88 L45.98,53.76 L44.28,53.76 L44.28,44.82 L41.12,44.82 L41.12,45.94 L42.92,45.94 L42.92,53.76 L41.22,53.76 L41.22,54.88 L45.98,54.88 Z M52.26,54.88 L52.26,53.76 L50.56,53.76 L50.56,50.04 C50.56,47.82 52.16,45.86 54.38,45.86 C56.32,45.86 56.58,47.26 56.58,48.84 L56.58,54.88 L59.64,54.88 L59.64,53.76 L57.94,53.76 L57.94,48.48 C57.94,46 57.08,44.58 54.6,44.58 C52.08,44.58 50.78,46.48 50.5,47.24 L50.46,47.24 C50.46,47.24 50.54,46.92 50.54,46.52 L50.54,45.94 C50.54,45.18 50.16,44.82 49.32,44.82 L47.4,44.82 L47.4,45.94 L48.76,45.94 C49.04,45.94 49.2,46.08 49.2,46.38 L49.2,53.76 L47.5,53.76 L47.5,54.88 L52.26,54.88 Z M65.22,59.08 C67.7,59.08 70.06,57.84 70.06,54.64 L70.06,46.36 C70.06,46.08 70.22,45.94 70.5,45.94 L71.74,45.94 L71.74,44.82 L69.94,44.82 C69.08,44.82 68.78,45.18 68.78,45.92 C68.78,46.22 68.82,46.36 68.82,46.36 L68.78,46.36 C68.24,45.12 66.82,44.58 65.4,44.58 C62.7,44.58 61.04,46.64 61.04,49.66 C61.04,52.68 62.82,54.82 65.52,54.82 C67.08,54.82 68.12,54.1 68.72,52.98 L68.76,52.98 C68.76,52.98 68.7,53.32 68.7,53.7 L68.7,54.7 C68.7,56.96 67.14,57.88 65.18,57.88 C63.7,57.88 62.46,57.18 62.46,57.18 L61.94,58.28 C62.92,58.78 64.08,59.08 65.22,59.08 Z M65.72,53.6 C63.74,53.6 62.44,52.06 62.44,49.64 C62.44,47.24 63.58,45.8 65.54,45.8 C67.32,45.8 68.72,46.72 68.72,49.66 C68.72,52.62 67.32,53.6 65.72,53.6 Z M79.94,59.08 C81.34,59.08 82.44,58.18 83.02,56.74 L87.3,45.94 L88.62,45.94 L88.62,44.82 L84.46,44.82 L84.46,45.94 L85.92,45.94 L83.28,52.8 C83.14,53.18 83.08,53.52 83.08,53.52 L83.02,53.52 C83.02,53.52 82.98,53.18 82.86,52.8 L80.22,45.94 L81.68,45.94 L81.68,44.82 L77.46,44.82 L77.46,45.94 L78.78,45.94 L82.38,54.94 L81.82,56.28 C81.44,57.16 80.8,57.88 79.9,57.88 C79.14,57.88 78.56,57.4 78.56,57.4 L78.04,58.48 C78.04,58.48 78.8,59.08 79.94,59.08 Z M94.84,55.12 C97.78,55.12 100.16,52.84 100.16,49.8 C100.16,46.82 97.78,44.58 94.84,44.58 C91.92,44.58 89.54,46.82 89.54,49.8 C89.54,52.84 91.92,55.12 94.84,55.12 Z M94.84,53.9 C92.7,53.9 90.94,52.14 90.94,49.8 C90.94,47.52 92.7,45.8 94.84,45.8 C97,45.8 98.76,47.52 98.76,49.8 C98.76,52.14 97,53.9 94.84,53.9 Z M106.5,55.12 C108.98,55.12 110.22,53.3 110.48,52.54 L110.52,52.54 C110.52,52.54 110.504198,52.7928395 110.500686,53.1299588 L110.5,53.76 C110.5,54.52 110.86,54.88 111.7,54.88 L113.4,54.88 L113.4,53.78 L112.26,53.78 C111.98,53.78 111.82,53.64 111.82,53.34 L111.82,44.82 L108.66,44.82 L108.66,45.94 L110.46,45.94 L110.46,49.6 C110.46,51.78 109.02,53.86 106.76,53.86 C104.865333,53.86 104.577911,52.5517778 104.560855,51.0373548 L104.56,44.82 L101.4,44.82 L101.4,45.94 L103.2,45.94 L103.2,51.22 C103.2,53.84 104.18,55.12 106.5,55.12 Z M119.58,54.88 L119.58,53.76 L118.02,53.76 L118.02,50.62 C118.02,48.62 118.94,46.08 121.2,46.08 C121.46,46.08 121.72,46.12 121.72,46.12 L121.72,44.78 C121.72,44.78 121.44,44.72 121.16,44.72 C119.6,44.72 118.48,45.88 117.98,47.4 L117.94,47.4 C117.94,47.4 117.98,47.06 117.98,46.64 L117.98,45.96 C117.98,45.16 117.6,44.82 116.76,44.82 L114.86,44.82 L114.86,45.94 L116.22,45.94 C116.5,45.94 116.66,46.08 116.66,46.38 L116.66,53.76 L115.1,53.76 L115.1,54.88 L119.58,54.88 Z M133.28,55.12 C135.6,55.12 136.98,53.76 137.2,53.56 L136.62,52.52 C136.44,52.66 135.28,53.9 133.32,53.9 C131.16,53.9 129.38,52.34 129.38,49.84 C129.38,47.4 131.06,45.8 133.26,45.8 C134.18,45.8 135.7,46.22 135.7,47.12 L135.7,47.86 L136.96,47.86 L136.96,46.76 C136.96,45.1 134.5,44.58 133.24,44.58 C130.34,44.58 127.98,46.74 127.98,49.88 C127.98,53.08 130.4,55.12 133.28,55.12 Z M144.26,55.12 C147.2,55.12 149.58,52.84 149.58,49.8 C149.58,46.82 147.2,44.58 144.26,44.58 C141.34,44.58 138.96,46.82 138.96,49.8 C138.96,52.84 141.34,55.12 144.26,55.12 Z M144.26,53.9 C142.12,53.9 140.36,52.14 140.36,49.8 C140.36,47.52 142.12,45.8 144.26,45.8 C146.42,45.8 148.18,47.52 148.18,49.8 C148.18,52.14 146.42,53.9 144.26,53.9 Z M155.18,55.12 C157.42,55.12 158.98,54.02 158.98,52.28 C158.98,50.48 157.26,49.82 155.7,49.26 C154.38,48.78 153.16,48.32 153.16,47.22 C153.16,46.24 154.16,45.76 155.28,45.76 C156.34,45.76 157.34,46.22 157.34,46.96 L157.34,47.7 L158.58,47.7 L158.58,46.54 C158.58,45.16 156.6,44.58 155.24,44.58 C153.56,44.58 151.76,45.42 151.76,47.26 C151.76,49.02 153.36,49.7 154.88,50.26 C156.32,50.8 157.6,51.2 157.6,52.36 C157.6,53.38 156.52,53.94 155.24,53.94 C154.08,53.94 152.62,53.5 152.62,52.48 L152.62,51.76 L151.38,51.76 L151.38,52.74 C151.38,54.28 153.32,55.12 155.18,55.12 Z M165.56,54.96 C165.9,54.96 166.14,54.92 166.14,54.92 L166.14,53.74 C166.14,53.74 165.96,53.78 165.68,53.78 C164.9,53.78 163.4,53.46 163.4,51.1 L163.4,45.94 L165.94,45.94 L165.94,44.82 L163.4,44.82 L163.4,42.04 L162.06,42.04 L162.06,44.82 L160.24,44.82 L160.24,45.94 L162.04,45.94 L162.04,51.22 C162.04,54.58 164.4,54.96 165.56,54.96 Z M171.36,55.12 C173.6,55.12 175.16,54.02 175.16,52.28 C175.16,50.48 173.44,49.82 171.88,49.26 C170.56,48.78 169.34,48.32 169.34,47.22 C169.34,46.24 170.34,45.76 171.46,45.76 C172.52,45.76 173.52,46.22 173.52,46.96 L173.52,47.7 L174.76,47.7 L174.76,46.54 C174.76,45.16 172.78,44.58 171.42,44.58 C169.74,44.58 167.94,45.42 167.94,47.26 C167.94,49.02 169.54,49.7 171.06,50.26 C172.5,50.8 173.78,51.2 173.78,52.36 C173.78,53.38 172.7,53.94 171.42,53.94 C170.26,53.94 168.8,53.5 168.8,52.48 L168.8,51.76 L167.56,51.76 L167.56,52.74 C167.56,54.28 169.5,55.12 171.36,55.12 Z M177.72,57.46 L179.46,53.24 L177.9,53.24 L176.54,57.46 L177.72,57.46 Z M191.96,54.88 L191.96,53.76 L189.96,53.76 L189.96,45.94 L195.2,45.94 L195.2,53.76 L193.5,53.76 L193.5,54.88 L198.26,54.88 L198.26,53.76 L196.56,53.76 L196.56,44.82 L189.96,44.82 L189.96,44.28 C189.96,42.14 191.34,41.9 192.02,41.9 C192.44,41.9 192.7,41.96 192.7,41.96 L192.7,40.78 C192.7,40.78 192.38,40.72 191.88,40.72 C190.84,40.72 188.6,41.12 188.6,44.3 L188.6,44.82 L186.8,44.82 L186.8,45.94 L188.6,45.94 L188.6,53.76 L186.9,53.76 L186.9,54.88 L191.96,54.88 Z M196.64,42.52 L196.64,40.82 L195.1,40.82 L195.1,42.52 L196.64,42.52 Z M203.9,59.08 C206.38,59.08 208.74,57.84 208.74,54.64 L208.74,46.36 C208.74,46.08 208.9,45.94 209.18,45.94 L210.42,45.94 L210.42,44.82 L208.62,44.82 C207.76,44.82 207.46,45.18 207.46,45.92 C207.46,46.22 207.5,46.36 207.5,46.36 L207.46,46.36 C206.92,45.12 205.5,44.58 204.08,44.58 C201.38,44.58 199.72,46.64 199.72,49.66 C199.72,52.68 201.5,54.82 204.2,54.82 C205.76,54.82 206.8,54.1 207.4,52.98 L207.44,52.98 C207.44,52.98 207.38,53.32 207.38,53.7 L207.38,54.7 C207.38,56.96 205.82,57.88 203.86,57.88 C202.38,57.88 201.14,57.18 201.14,57.18 L200.62,58.28 C201.6,58.78 202.76,59.08 203.9,59.08 Z M204.4,53.6 C202.42,53.6 201.12,52.06 201.12,49.64 C201.12,47.24 202.26,45.8 204.22,45.8 C206,45.8 207.4,46.72 207.4,49.66 C207.4,52.62 206,53.6 204.4,53.6 Z M216.34,54.88 L216.34,53.76 L214.64,53.76 L214.64,50.06 C214.64,47.66 216.3,45.86 218.46,45.86 C220.333103,45.86 220.621427,47.165113 220.639084,48.6772438 L220.64,54.88 L223.72,54.88 L223.72,53.76 L222,53.76 L222,48.48 C222,46 221.12,44.58 218.64,44.58 C216.36,44.58 215,46.22 214.6,47.16 L214.56,47.16 C214.56,47.16 214.64,46.8 214.64,46.34 L214.64,40.82 L211.48,40.82 L211.48,41.94 L213.28,41.94 L213.28,53.76 L211.58,53.76 L211.58,54.88 L216.34,54.88 Z M229.7,54.96 C230.04,54.96 230.28,54.92 230.28,54.92 L230.28,53.74 C230.28,53.74 230.1,53.78 229.82,53.78 C229.04,53.78 227.54,53.46 227.54,51.1 L227.54,45.94 L230.08,45.94 L230.08,44.82 L227.54,44.82 L227.54,42.04 L226.2,42.04 L226.2,44.82 L224.38,44.82 L224.38,45.94 L226.18,45.94 L226.18,51.22 C226.18,54.58 228.54,54.96 229.7,54.96 Z M234.88,42.52 L234.88,40.82 L233.34,40.82 L233.34,42.52 L234.88,42.52 Z M236.48,54.88 L236.48,53.76 L234.78,53.76 L234.78,44.82 L231.62,44.82 L231.62,45.94 L233.42,45.94 L233.42,53.76 L231.72,53.76 L231.72,54.88 L236.48,54.88 Z M242.76,54.88 L242.76,53.76 L241.06,53.76 L241.06,50.04 C241.06,47.82 242.66,45.86 244.88,45.86 C246.753103,45.86 247.060071,47.165113 247.079014,48.6772438 L247.08,54.88 L250.14,54.88 L250.14,53.76 L248.44,53.76 L248.44,48.48 C248.44,46 247.58,44.58 245.1,44.58 C242.58,44.58 241.28,46.48 241,47.24 L240.96,47.24 C240.96,47.24 241.04,46.92 241.04,46.52 L241.04,45.94 C241.04,45.18 240.66,44.82 239.82,44.82 L237.9,44.82 L237.9,45.94 L239.26,45.94 C239.54,45.94 239.7,46.08 239.7,46.38 L239.7,53.76 L238,53.76 L238,54.88 L242.76,54.88 Z M255.72,59.08 C258.2,59.08 260.56,57.84 260.56,54.64 L260.56,46.36 C260.56,46.08 260.72,45.94 261,45.94 L262.24,45.94 L262.24,44.82 L260.44,44.82 C259.58,44.82 259.28,45.18 259.28,45.92 C259.28,46.22 259.32,46.36 259.32,46.36 L259.28,46.36 C258.74,45.12 257.32,44.58 255.9,44.58 C253.2,44.58 251.54,46.64 251.54,49.66 C251.54,52.68 253.32,54.82 256.02,54.82 C257.58,54.82 258.62,54.1 259.22,52.98 L259.26,52.98 C259.26,52.98 259.2,53.32 259.2,53.7 L259.2,54.7 C259.2,56.96 257.64,57.88 255.68,57.88 C254.2,57.88 252.96,57.18 252.96,57.18 L252.44,58.28 C253.42,58.78 254.58,59.08 255.72,59.08 Z M256.22,53.6 C254.24,53.6 252.94,52.06 252.94,49.64 C252.94,47.24 254.08,45.8 256.04,45.8 C257.82,45.8 259.22,46.72 259.22,49.66 C259.22,52.62 257.82,53.6 256.22,53.6 Z M270.44,59.08 C271.84,59.08 272.94,58.18 273.52,56.74 L277.8,45.94 L279.12,45.94 L279.12,44.82 L274.96,44.82 L274.96,45.94 L276.42,45.94 L273.78,52.8 C273.64,53.18 273.58,53.52 273.58,53.52 L273.52,53.52 C273.52,53.52 273.48,53.18 273.36,52.8 L270.72,45.94 L272.18,45.94 L272.18,44.82 L267.96,44.82 L267.96,45.94 L269.28,45.94 L272.88,54.94 L272.32,56.28 C271.94,57.16 271.3,57.88 270.4,57.88 C269.64,57.88 269.06,57.4 269.06,57.4 L268.54,58.48 C268.54,58.48 269.3,59.08 270.44,59.08 Z M285.34,55.12 C288.28,55.12 290.66,52.84 290.66,49.8 C290.66,46.82 288.28,44.58 285.34,44.58 C282.42,44.58 280.04,46.82 280.04,49.8 C280.04,52.84 282.42,55.12 285.34,55.12 Z M285.34,53.9 C283.2,53.9 281.44,52.14 281.44,49.8 C281.44,47.52 283.2,45.8 285.34,45.8 C287.5,45.8 289.26,47.52 289.26,49.8 C289.26,52.14 287.5,53.9 285.34,53.9 Z M297,55.12 C299.48,55.12 300.72,53.3 300.98,52.54 L301.02,52.54 C301.02,52.54 301,52.86 301,53.26 L301,53.76 C301,54.52 301.36,54.88 302.2,54.88 L303.9,54.88 L303.9,53.78 L302.76,53.78 C302.48,53.78 302.32,53.64 302.32,53.34 L302.32,44.82 L299.16,44.82 L299.16,45.94 L300.96,45.94 L300.96,49.6 C300.96,51.78 299.52,53.86 297.26,53.86 C295.3,53.86 295.06,52.46 295.06,50.88 L295.06,44.82 L291.9,44.82 L291.9,45.94 L293.7,45.94 L293.7,51.22 C293.7,53.84 294.68,55.12 297,55.12 Z M310.08,54.88 L310.08,53.76 L308.52,53.76 L308.52,50.62 C308.52,48.62 309.44,46.08 311.7,46.08 C311.96,46.08 312.22,46.12 312.22,46.12 L312.22,44.78 C312.22,44.78 311.94,44.72 311.66,44.72 C310.1,44.72 308.98,45.88 308.48,47.4 L308.44,47.4 C308.44,47.4 308.48,47.06 308.48,46.64 L308.48,45.96 C308.48,45.16 308.1,44.82 307.26,44.82 L305.36,44.82 L305.36,45.94 L306.72,45.94 C307,45.94 307.16,46.08 307.16,46.38 L307.16,53.76 L305.6,53.76 L305.6,54.88 L310.08,54.88 Z M323.78,55.12 C326.1,55.12 327.48,53.76 327.7,53.56 L327.12,52.52 C326.94,52.66 325.78,53.9 323.82,53.9 C321.66,53.9 319.88,52.34 319.88,49.84 C319.88,47.4 321.56,45.8 323.76,45.8 C324.68,45.8 326.2,46.22 326.2,47.12 L326.2,47.86 L327.46,47.86 L327.46,46.76 C327.46,45.1 325,44.58 323.74,44.58 C320.84,44.58 318.48,46.74 318.48,49.88 C318.48,53.08 320.9,55.12 323.78,55.12 Z M334.76,55.12 C337.7,55.12 340.08,52.84 340.08,49.8 C340.08,46.82 337.7,44.58 334.76,44.58 C331.84,44.58 329.46,46.82 329.46,49.8 C329.46,52.84 331.84,55.12 334.76,55.12 Z M334.76,53.9 C332.62,53.9 330.86,52.14 330.86,49.8 C330.86,47.52 332.62,45.8 334.76,45.8 C336.92,45.8 338.68,47.52 338.68,49.8 C338.68,52.14 336.92,53.9 334.76,53.9 Z M346.4,54.88 L346.4,53.76 L344.84,53.76 L344.84,50.62 C344.84,48.62 345.76,46.08 348.02,46.08 C348.28,46.08 348.54,46.12 348.54,46.12 L348.54,44.78 C348.54,44.78 348.26,44.72 347.98,44.72 C346.42,44.72 345.3,45.88 344.8,47.4 L344.76,47.4 C344.76,47.4 344.8,47.06 344.8,46.64 L344.8,45.96 C344.8,45.16 344.42,44.82 343.58,44.82 L341.68,44.82 L341.68,45.94 L343.04,45.94 C343.32,45.94 343.48,46.08 343.48,46.38 L343.48,53.76 L341.92,53.76 L341.92,54.88 L346.4,54.88 Z M354.56,54.88 L354.56,53.76 L352.86,53.76 L352.86,50.04 C352.86,47.82 354.46,45.86 356.68,45.86 C358.553103,45.86 358.860071,47.165113 358.879014,48.6772438 L358.88,54.88 L361.94,54.88 L361.94,53.76 L360.24,53.76 L360.24,48.48 C360.24,46 359.38,44.58 356.9,44.58 C354.38,44.58 353.08,46.48 352.8,47.24 L352.76,47.24 C352.76,47.24 352.84,46.92 352.84,46.52 L352.84,45.94 C352.84,45.18 352.46,44.82 351.62,44.82 L349.7,44.82 L349.7,45.94 L351.06,45.94 C351.34,45.94 351.5,46.08 351.5,46.38 L351.5,53.76 L349.8,53.76 L349.8,54.88 L354.56,54.88 Z M368.56,55.12 C370.84,55.12 372.28,53.72 372.28,53.72 L371.66,52.7 C371.66,52.7 370.44,53.9 368.6,53.9 C366.52,53.9 364.76,52.44 364.7,49.86 L372.42,49.86 C372.42,49.86 372.48,49.46 372.48,49.22 C372.48,46.72 371.04,44.58 368.26,44.58 C365.54,44.58 363.3,46.56 363.3,49.86 C363.3,52.96 365.56,55.12 368.56,55.12 Z M371.06,48.86 L364.76,48.86 C365.08,46.82 366.54,45.72 368.22,45.72 C369.7,45.72 370.98,46.74 371.06,48.86 Z M378.9,54.88 L378.9,53.76 L377.34,53.76 L377.34,50.62 C377.34,48.62 378.26,46.08 380.52,46.08 C380.78,46.08 381.04,46.12 381.04,46.12 L381.04,44.78 C381.04,44.78 380.76,44.72 380.48,44.72 C378.92,44.72 377.8,45.88 377.3,47.4 L377.26,47.4 C377.26,47.4 377.3,47.06 377.3,46.64 L377.3,45.96 C377.3,45.16 376.92,44.82 376.08,44.82 L374.18,44.82 L374.18,45.94 L375.54,45.94 C375.82,45.94 375.98,46.08 375.98,46.38 L375.98,53.76 L374.42,53.76 L374.42,54.88 L378.9,54.88 Z" id="Cuttingyourcosts,fghtingyourcorner" fill="#333333"></path>

            <path d="M11.68,28.88 L11.68,24.96 L8.48,24.96 L9.52,10.64 C9.6,9.64 9.4,8 9.4,8 L9.56,8 C9.56,8 9.84,9.56 10.2,10.52 L15.64,23.6 L20.12,23.6 L25.56,10.52 C25.92,9.56 26.24,8 26.24,8 L26.36,8 C26.36,8 26.16,9.64 26.24,10.64 L27.28,24.96 L24.12,24.96 L24.12,28.88 L35.76,28.88 L35.76,24.96 L32.4,24.96 L30.76,4.44 L34.16,4.44 L34.16,0.48 L24.92,0.48 L18.64,16.52 C18.12,17.92 17.92,18.88 17.92,18.88 L17.84,18.88 C17.84,18.88 17.64,17.92 17.16,16.52 L10.84,0.48 L1.6,0.48 L1.6,4.44 L5.04,4.44 L3.36,24.96 L-2.27373675e-13,24.96 L-2.27373675e-13,28.88 L11.68,28.88 Z M49.88,29.36 C56.08,29.36 61.08,24.96 61.08,18.68 C61.08,12.44 56.08,8 49.84,8 C43.64,8 38.64,12.44 38.64,18.68 C38.64,24.96 43.64,29.36 49.88,29.36 Z M49.88,25.04 C46.56,25.04 43.8,22.48 43.8,18.68 C43.8,14.92 46.56,12.32 49.88,12.32 C53.16,12.32 55.92,14.92 55.92,18.68 C55.92,22.48 53.16,25.04 49.88,25.04 Z M75.24,28.88 L75.24,25.08 L72.32,25.08 L72.32,19.72 C72.32,16.16 74.48,12.64 78.16,12.64 C80.72,12.64 81.4,14.32 81.4,16.8 L81.4,28.88 L89.4,28.88 L89.4,25.08 L86.44,25.08 L86.44,15.76 C86.44,10.36 83.96,8 79.6,8 C74.48,8 72.32,11.92 72.08,12.56 L72,12.56 C72,12.56 72.08,12.12 72.08,11.68 L72.08,10.76 C72.08,9.32 71.24,8.48 69.44,8.48 L64.08,8.48 L64.08,12.28 L66.36,12.28 C66.92,12.28 67.24,12.6 67.24,13.16 L67.24,25.08 L64.28,25.08 L64.28,28.88 L75.24,28.88 Z M102.68,29.36 C107.8,29.36 110.92,26.52 110.92,26.52 L108.96,22.92 C108.96,22.92 106.36,25.08 103.04,25.08 C99.96,25.08 97.24,23.16 96.92,19.4 L111.04,19.4 C111.04,19.4 111.16,18.28 111.16,17.68 C111.16,12.28 107.96,8 102.08,8 C95.96,8 91.72,12.4 91.72,18.68 C91.72,24.48 95.92,29.36 102.68,29.36 Z M105.92,16.4 L97.04,16.4 C97.52,13.72 99.36,11.92 101.96,11.92 C104.12,11.92 105.84,13.6 105.92,16.4 Z M118.56,37.28 C122.04,37.28 125.08,35.56 126.64,31.52 L134.16,12.28 L136.48,12.28 L136.48,8.48 L126.84,8.48 L126.84,12.28 L129.2,12.28 L125.52,22.6 C125.12,23.6 124.96,24.72 124.96,24.72 L124.84,24.72 C124.84,24.72 124.76,23.6 124.4,22.6 L120.68,12.28 L123.08,12.28 L123.08,8.48 L113.04,8.48 L113.04,12.28 L115.48,12.28 L122.48,29.48 L121.92,30.76 C121.28,32.24 119.96,33.12 118.32,33.12 C116.44,33.12 115.24,32.16 115.24,32.16 L113.6,35.88 C113.6,35.88 115.6,37.28 118.56,37.28 Z M148.56,29.36 C153.92,29.36 158.8,26.68 158.8,20.88 C158.8,15.56 154.56,13.88 150.32,12.36 C147.36,11.24 144.72,10.32 144.72,7.72 C144.72,5.56 146.64,4.6 148.96,4.6 C151.08,4.6 153.2,5.36 153.2,6.8 L153.2,8.72 L157.96,8.72 L157.96,5 C157.96,1.72 153.44,0 148.96,0 C144.08,0 139.44,2.2 139.44,7.92 C139.44,13 143.16,14.72 146.96,16.16 C150.24,17.44 153.48,18.36 153.48,21.24 C153.48,23.52 151.44,24.76 148.56,24.76 C145.88,24.76 143.56,23.68 143.56,21.84 L143.56,19.72 L138.8,19.72 L138.8,22.96 C138.8,27.24 143.84,29.36 148.56,29.36 Z M168.56,29.36 C173.28,29.36 175,25.44 175,25.44 L175.08,25.44 C175.08,25.44 174.96,25.84 174.96,26.48 L174.96,26.72 C174.96,27.88 175.68,28.88 177.56,28.88 L182.36,28.88 L182.36,25.08 L180.52,25.08 C179.96,25.08 179.64,24.8 179.64,24.2 L179.64,16.04 C179.64,10.84 176.72,8 171.24,8 C166.32,8 163.16,10.52 163.16,10.52 L165.04,14.04 C165.04,14.04 167.76,12.08 170.8,12.08 C172.92,12.08 174.56,13 174.56,15.6 L174.56,16.28 L173.28,16.28 C170,16.28 161.8,16.92 161.8,23.16 C161.8,27.32 165.08,29.36 168.56,29.36 Z M169.88,25.56 C168,25.56 166.92,24.28 166.92,22.76 C166.92,19.68 171.76,19.36 173.76,19.36 L174.6,19.36 L174.6,20.04 C174.6,22.6 172.64,25.56 169.88,25.56 Z M198.2,28.88 L204.44,12.28 L206.88,12.28 L206.88,8.48 L197.08,8.48 L197.08,12.28 L199.4,12.28 L195.84,22.36 C195.48,23.4 195.36,24.6 195.36,24.6 L195.24,24.6 C195.24,24.6 195.12,23.4 194.72,22.36 L191.2,12.28 L193.48,12.28 L193.48,8.48 L183.68,8.48 L183.68,12.28 L186.16,12.28 L192.36,28.88 L198.2,28.88 Z M217.16,5 L217.16,0.48 L212.04,0.48 L212.04,5 L217.16,5 Z M220.08,28.88 L220.08,25.08 L217.16,25.08 L217.16,8.48 L208.92,8.48 L208.92,12.28 L212.08,12.28 L212.08,25.08 L209.12,25.08 L209.12,28.88 L220.08,28.88 Z M234.08,28.88 L234.08,25.08 L231.16,25.08 L231.16,19.72 C231.16,16.16 233.32,12.64 237,12.64 C239.56,12.64 240.24,14.32 240.24,16.8 L240.24,28.88 L248.24,28.88 L248.24,25.08 L245.28,25.08 L245.28,15.76 C245.28,10.36 242.8,8 238.44,8 C233.32,8 231.16,11.92 230.92,12.56 L230.84,12.56 C230.84,12.56 230.92,12.12 230.92,11.68 L230.92,10.76 C230.92,9.32 230.08,8.48 228.28,8.48 L222.92,8.48 L222.92,12.28 L225.2,12.28 C225.76,12.28 226.08,12.6 226.08,13.16 L226.08,25.08 L223.12,25.08 L223.12,28.88 L234.08,28.88 Z M259.8,37.28 C265.12,37.28 270.56,34.64 270.56,27.64 L270.56,13.08 C270.56,12.56 270.92,12.28 271.44,12.28 L273.4,12.28 L273.4,8.48 L268.32,8.48 C266.72,8.48 266,9.32 266,10.4 C266,10.8 266.08,11.08 266.08,11.08 L266,11.08 C264.88,8.92 262.12,8 259.68,8 C253.8,8 250.64,12.56 250.64,18.16 C250.64,23.76 253.92,28.48 259.8,28.48 C262.52,28.48 264.28,27.44 265.48,25.64 L265.56,25.64 C265.56,25.64 265.48,26.24 265.48,26.72 L265.48,28 C265.48,31.76 262.84,33.12 259.72,33.12 C256.6,33.12 254.08,31.76 254.08,31.76 L252.52,35.52 C254.52,36.56 257.24,37.28 259.8,37.28 Z M260.88,24.2 C257.6,24.2 255.76,21.56 255.76,18 C255.76,14.56 257.48,12.32 260.56,12.32 C263.28,12.32 265.6,13.56 265.6,18.2 C265.6,22.8 263.28,24.2 260.88,24.2 Z M298.28,28.88 L298.28,21.48 L293.8,21.48 L293.8,24.68 L285.24,24.68 L285.24,16.68 L294.6,16.68 L294.6,12.48 L285.24,12.48 L285.24,4.68 L293.2,4.68 L293.2,7.8 L297.68,7.8 L297.68,0.48 L276.6,0.48 L276.6,4.44 L280,4.44 L280,24.96 L276.6,24.96 L276.6,28.88 L298.28,28.88 Z M307.64,28.88 L311.16,23.2 C311.6,22.48 311.92,21.72 311.92,21.72 L312,21.72 C312,21.72 312.36,22.52 312.8,23.16 L316.4,28.88 L322.04,28.88 L322.04,25.08 L319.56,25.08 L314.92,18.36 L319.12,12.28 L321.96,12.28 L321.96,8.48 L316.12,8.48 L312.92,13.64 C312.48,14.32 312.12,15.08 312.12,15.08 L312.04,15.08 C312.04,15.08 311.68,14.32 311.28,13.64 L308.12,8.48 L301.84,8.48 L301.84,12.28 L304.96,12.28 L309.16,18.48 L304.68,25.08 L301.76,25.08 L301.76,28.88 L307.64,28.88 Z M335.84,36.88 L335.84,33.08 L332.88,33.08 L332.88,28.24 C332.88,27.2 332.76,26.48 332.76,26.48 L332.84,26.48 C332.84,26.48 334.68,29.36 338.72,29.36 C344.08,29.36 348.04,25.16 348.04,18.68 C348.04,12.36 344.52,8 339,8 C334.2,8 332.44,11.44 332.44,11.44 L332.36,11.44 C332.36,11.44 332.4,11 332.4,10.52 L332.4,10.4 C332.4,9.36 331.76,8.48 329.88,8.48 L324.64,8.48 L324.64,12.28 L326.92,12.28 C327.48,12.28 327.8,12.6 327.8,13.16 L327.8,33.08 L324.84,33.08 L324.84,36.88 L335.84,36.88 Z M337.8,25.08 C334.48,25.08 332.72,21.96 332.72,18.8 C332.72,14.28 335.2,12.36 337.84,12.36 C340.84,12.36 342.92,14.88 342.92,18.76 C342.92,22.8 340.6,25.08 337.8,25.08 Z M361.84,29.36 C366.96,29.36 370.08,26.52 370.08,26.52 L368.12,22.92 C368.12,22.92 365.52,25.08 362.2,25.08 C359.12,25.08 356.4,23.16 356.08,19.4 L370.2,19.4 C370.2,19.4 370.32,18.28 370.32,17.68 C370.32,12.28 367.12,8 361.24,8 C355.12,8 350.88,12.4 350.88,18.68 C350.88,24.48 355.08,29.36 361.84,29.36 Z M365.08,16.4 L356.2,16.4 C356.68,13.72 358.52,11.92 361.12,11.92 C363.28,11.92 365,13.6 365.08,16.4 Z M384.6,28.88 L384.6,25.08 L381.68,25.08 L381.68,20.64 C381.68,16.8 383.52,13.2 387.64,13.2 C388.36,13.2 388.88,13.28 388.88,13.28 L388.88,8.28 C388.88,8.28 388.44,8.2 387.96,8.2 C384.84,8.2 382.4,10.52 381.48,13.44 L381.4,13.44 L381.404431,13.4089796 C381.421224,13.2865306 381.48,12.8114286 381.48,12.16 L381.48,10.96 C381.48,9.24 380.56,8.48 378.76,8.48 L373.44,8.48 L373.44,12.28 L375.72,12.28 C376.28,12.28 376.6,12.6 376.6,13.16 L376.6,25.08 L373.64,25.08 L373.64,28.88 L384.6,28.88 Z M402.04,29.08 C402.96,29.08 403.6,28.96 403.6,28.96 L403.6,24.8 C403.6,24.8 403.302479,24.8330579 402.827648,24.8390684 L402.68,24.84 C401.24,24.84 398.6,24.36 398.6,20.88 L398.6,12.28 L403.24,12.28 L403.24,8.48 L398.6,8.48 L398.6,2.92 L393.68,2.92 L393.68,8.48 L390.4,8.48 L390.4,12.28 L393.52,12.28 L393.52,21.4 C393.52,28.24 399.16,29.08 402.04,29.08 Z" id="MoneySavingExpert" fill="#D3222A"></path>

        </g>

    </g>

</svg>
